<svg width="23" height="30" viewBox="0 0 23 30" fill="none" xmlns="http://www.w3.org/2000/svg">
<path d="M11.25 4.99998C11.9403 4.99998 12.5 4.44035 12.5 3.75C12.5 3.05965 11.9403 2.50002 11.25 2.50002C10.5597 2.50002 10 3.05965 10 3.75C10 4.44035 10.5597 4.99998 11.25 4.99998Z" fill="black"/>
<path d="M13.125 6.25002C13.4702 6.25002 13.75 5.97019 13.75 5.625C13.75 5.27981 13.4702 4.99998 13.125 4.99998C12.7798 4.99998 12.5 5.27981 12.5 5.625C12.5 5.97019 12.7798 6.25002 13.125 6.25002Z" fill="black"/>
<path d="M15.8574 8.49779C17.3621 8.32348 18.2171 8.12092 18.2764 8.10609C18.5547 8.03648 18.75 7.78687 18.75 7.5C18.75 3.36428 15.3857 0 11.25 0C9.32807 0 7.57852 0.732715 6.25002 1.92557V0.62502C6.25002 0.279551 5.97047 0 5.625 0C5.27953 0 4.99998 0.279551 4.99998 0.62502V3.36305C4.21184 4.54992 3.75 5.97152 3.75 7.5C3.75 7.78687 3.94529 8.03648 4.22361 8.10609C4.28291 8.12092 5.13785 8.32348 6.6426 8.49779C2.73287 10.2622 0 14.1895 0 18.75C0 24.953 5.04697 30 11.25 30C17.453 30 22.5 24.953 22.5 18.75C22.5 14.1895 19.7671 10.2622 15.8574 8.49779ZM20.5401 15.0718C19.014 15.3659 17.8236 16.5872 17.5632 18.125H14.9368C14.6718 16.5594 13.4406 15.3282 11.875 15.0632V12.4368C13.4128 12.1764 14.6341 10.986 14.9282 9.4599C17.4854 10.4762 19.5238 12.5146 20.5401 15.0718ZM13.75 18.75C13.75 20.1288 12.6288 21.25 11.25 21.25C9.87117 21.25 8.74998 20.1288 8.74998 18.75C8.74998 17.3712 9.87117 16.25 11.25 16.25C12.6288 16.25 13.75 17.3712 13.75 18.75ZM8.78396 9.07037C9.57445 8.86875 10.3976 8.75004 11.25 8.75004C12.1029 8.75004 12.9267 8.86893 13.7176 9.07078C13.5582 10.2969 12.5189 11.25 11.25 11.25C9.98139 11.25 8.9424 10.2974 8.78396 9.07037ZM5.02014 6.99645C5.27771 3.7848 7.97303 1.24998 11.25 1.24998C14.527 1.24998 17.2223 3.78475 17.4799 6.99645C16.5606 7.16918 14.3909 7.5 11.25 7.5C8.10914 7.5 5.93936 7.16918 5.02014 6.99645ZM7.57178 9.4599C7.86592 10.986 9.08719 12.1764 10.625 12.4368V15.0632C9.05941 15.3282 7.82818 16.5594 7.56316 18.125H4.93682C4.67643 16.5872 3.48603 15.3659 1.9599 15.0718C2.97615 12.5146 5.01457 10.4762 7.57178 9.4599ZM1.24998 18.75C1.24998 17.8971 1.36887 17.0733 1.57072 16.2824C2.79686 16.4418 3.75 17.4811 3.75 18.75C3.75 20.018 2.79727 21.0575 1.57037 21.216C1.36869 20.4255 1.24998 19.6024 1.24998 18.75ZM7.57178 28.0401C5.01457 27.0238 2.97615 24.9854 1.9599 22.4282C3.48603 22.1341 4.67643 20.9128 4.93682 19.375H7.56316C7.82818 20.9406 9.05941 22.1718 10.625 22.4368V25.0632C9.08725 25.3236 7.86592 26.514 7.57178 28.0401ZM11.25 28.75C10.3971 28.75 9.57334 28.6311 8.78244 28.4293C8.94182 27.2031 9.98109 26.25 11.25 26.25C12.5186 26.25 13.5576 27.2026 13.716 28.4296C12.9255 28.6313 12.1024 28.75 11.25 28.75ZM14.9282 28.0401C14.6341 26.514 13.4128 25.3236 11.875 25.0632V22.4368C13.4406 22.1718 14.6718 20.9406 14.9368 19.375H17.5632C17.8236 20.9128 19.014 22.1341 20.5401 22.4282C19.5238 24.9854 17.4854 27.0238 14.9282 28.0401ZM18.75 18.75C18.75 17.482 19.7027 16.4425 20.9296 16.284C21.1313 17.0745 21.25 17.8976 21.25 18.75C21.25 19.6029 21.1311 20.4267 20.9292 21.2176C19.7031 21.0582 18.75 20.0189 18.75 18.75Z" fill="black"/>
</svg>
