<svg width="104" height="23" viewBox="0 0 104 23" fill="none" xmlns="http://www.w3.org/2000/svg">
<g clip-path="url(#clip0)">
<path d="M9.38253 0C4.20338 0 0 4.20337 0 9.38253C0 14.5617 4.20337 18.7651 9.38253 18.7651C14.5617 18.7651 18.7651 14.5617 18.7651 9.38253C18.7651 4.20337 14.5617 0 9.38253 0ZM8.93973 0.777889C8.94501 0.777621 8.95041 0.778147 8.95569 0.777889L8.99558 1.41416C8.45442 1.43996 7.9277 1.51888 7.41986 1.64753L7.57743 2.26784C6.24443 2.60549 5.05712 3.30747 4.1268 4.26243L3.67004 3.81564C3.29855 4.19676 2.96642 4.6154 2.67674 5.06425L2.14219 4.71121C3.60214 2.45386 6.08896 0.92255 8.93973 0.777889ZM9.80937 0.777889C12.6668 0.917666 15.1602 2.44968 16.6229 4.71121L16.0883 5.06425C15.7993 4.61653 15.4675 4.19796 15.097 3.81764L14.6403 4.26243C13.7098 3.30696 12.5211 2.60561 11.1876 2.26784L11.3452 1.64753C10.8374 1.51888 10.3106 1.43996 9.76948 1.41416L9.80937 0.777889ZM9.38253 3.59025C9.6538 3.58963 9.92506 3.60621 10.1485 3.63812L9.7994 6.54224C10.5331 6.64923 11.1764 7.03322 11.6205 7.58541L13.9501 5.83815C14.2331 6.19068 14.5539 6.74371 14.722 7.16256L12.0453 8.30745C12.1798 8.63985 12.2547 9.00207 12.2547 9.38253C12.2547 9.74906 12.1866 10.0993 12.0613 10.4217L14.7161 11.5566C14.5523 11.978 14.2348 12.53 13.9561 12.885L11.6424 11.1537C11.1989 11.7185 10.5483 12.1129 9.80538 12.2228L10.1485 15.0791C9.70167 15.1479 9.0634 15.1469 8.61661 15.0831L8.95968 12.2228C8.21627 12.1128 7.56618 11.7172 7.12267 11.1517L4.81493 12.883C4.53195 12.5305 4.21114 11.9775 4.04303 11.5586L6.7038 10.4197C6.5789 10.0978 6.51033 9.7484 6.51033 9.38253C6.51033 9.00141 6.58478 8.63833 6.71976 8.30545L4.04901 7.16455C4.21282 6.74322 4.53028 6.19117 4.80895 5.83616L7.14461 7.58541C7.58869 7.03322 8.23197 6.64923 8.96566 6.54224L8.61661 3.64211C8.84 3.60771 9.11127 3.59088 9.38253 3.59025ZM1.71534 5.44921L2.28978 5.73244C2.0475 6.20214 1.84941 6.69805 1.70338 7.21641L2.31771 7.38994C2.13911 8.02374 2.04246 8.69186 2.04246 9.38253C2.04246 10.0739 2.13878 10.7428 2.31771 11.3771L1.70338 11.5506C1.84931 12.0682 2.0478 12.5636 2.28978 13.0326L1.71534 13.3159C1.10866 12.1364 0.765921 10.7993 0.765921 9.38253C0.765921 7.96574 1.10866 6.62863 1.71534 5.44921ZM17.0497 5.44921C17.6564 6.62863 17.9991 7.96574 17.9991 9.38253C17.9991 10.7993 17.6564 12.1364 17.0497 13.3159L16.4753 13.0326C16.7174 12.5635 16.9157 12.0683 17.0617 11.5506L16.4474 11.3771C16.6263 10.7428 16.7226 10.0739 16.7226 9.38253C16.7226 8.69186 16.626 8.02374 16.4474 7.38994L17.0617 7.21641C16.9157 6.69819 16.7175 6.20203 16.4753 5.73244L17.0497 5.44921ZM2.67674 13.7008C2.96653 14.1496 3.29853 14.5683 3.67004 14.9494L4.1268 14.5026C5.05712 15.4576 6.24443 16.1596 7.57743 16.4972L7.41986 17.1175C7.9277 17.2462 8.45442 17.3251 8.99558 17.3509L8.95569 17.9872C6.09829 17.8474 3.60484 16.3154 2.14219 14.0538L2.67674 13.7008ZM16.0903 13.7008L16.6229 14.0538C15.1602 16.3154 12.6668 17.8474 9.80937 17.9872L9.76948 17.3509C10.3106 17.3251 10.8374 17.2462 11.3452 17.1175L11.1876 16.4972C12.5211 16.1595 13.7098 15.4581 14.6403 14.5026L15.097 14.9474C15.4679 14.5666 15.8009 14.1491 16.0903 13.7008Z" fill="black" fill-opacity="0.32"/>
</g>
<g clip-path="url(#clip1)">
<path d="M9.38257 9.3826H13.8091V23.0001H9.38257V9.3826Z" fill="black"/>
<path d="M14.5654 23.0001V9.3826H18.9919L21.9697 15.0485L24.9475 9.3826H29.374V23.0001H24.9475V17.3503L22.0985 23.0001H21.8571L19.008 17.3503V23.0162H14.5654V23.0001Z" fill="black"/>
<path d="M30.3237 23.0001V9.3826H39.1927C40.2873 9.47918 41.1887 9.76891 41.913 10.2357C42.6373 10.7025 43.1363 11.3463 43.4422 12.1834C43.7158 13.1813 43.8285 13.9379 43.7802 14.4529C43.7319 14.968 43.6353 15.4348 43.4743 15.8694C43.3134 16.304 42.911 16.8191 42.2349 17.3986C41.5589 17.978 40.6575 18.3482 39.5147 18.5253H35.2491V23.0162H30.3237V23.0001ZM35.2491 12.7789V15.2899H38.6776C38.8547 15.2899 39.064 15.2256 39.2732 15.0807C39.4825 14.9358 39.5951 14.5978 39.6112 14.0505C39.579 13.5354 39.4503 13.1813 39.2249 13.0204C38.9996 12.8594 38.8225 12.7628 38.6616 12.7628H35.2491V12.7789Z" fill="black"/>
<path d="M44.4726 23.0001V9.3826H56.1424V13.4389H48.8991V15.0002H53.5831V17.3825H48.8991V18.9438H57.2852V23.0001H44.4726Z" fill="black"/>
<path d="M57.3011 23.0001V9.3826H66.1701C67.2647 9.47918 68.1661 9.76891 68.8743 10.2518C69.5825 10.7347 70.0976 11.3785 70.4195 12.1834C70.6771 13.3906 70.6771 14.3242 70.4517 14.968C70.2264 15.6119 69.824 16.1752 69.2606 16.6098C68.6972 17.0444 67.8763 17.3986 66.8301 17.64L67.8441 18.9438H71.9165V23.0001H66.5403L62.2265 18.5092V23.0001H57.3011V23.0001ZM62.2265 12.7789V15.2899H65.6551C65.8321 15.2899 66.0414 15.2256 66.2506 15.0807C66.4599 14.9358 66.5725 14.5978 66.5886 14.0505C66.5564 13.5354 66.4277 13.1813 66.2023 13.0204C65.977 12.8594 65.7999 12.7628 65.639 12.7628H62.2265V12.7789Z" fill="black"/>
<path d="M71.7393 9.3826H76.1658V23.0001H71.7393V9.3826Z" fill="black"/>
<path d="M75.7958 23.0001L80.2706 9.3826H87.0311L91.5863 23.0001H86.4355L85.5824 20.5534H81.5422L80.6891 23.0001H75.7958ZM83.6669 12.4087L81.7193 17.801H85.4697L83.6669 12.4087Z" fill="black"/>
<path d="M91.3931 23.0001V9.3826H95.8196V18.9438H103.192V23.0001H91.3931Z" fill="black"/>
</g>
<defs>
<clipPath id="clip0">
<rect width="18.7651" height="18.7651" fill="white"/>
</clipPath>
<clipPath id="clip1">
<rect width="93.8253" height="13.6175" fill="white" transform="translate(9.38257 9.3826)"/>
</clipPath>
</defs>
</svg>
