<svg width="25" height="25" viewBox="0 0 25 25" fill="none" xmlns="http://www.w3.org/2000/svg">
<path d="M1.87031 7.01654H3.62133C3.82423 7.01654 3.98873 6.85204 3.98873 6.64914C3.98873 6.44624 3.82423 6.28173 3.62133 6.28173H2.51079C2.65609 6.04844 2.8105 5.81923 2.97272 5.59558H8.72819C8.93109 5.59558 9.0956 5.43108 9.0956 5.22818C9.0956 5.02528 8.93109 4.86078 8.72819 4.86078H2.78738C2.67174 4.86078 2.56287 4.91523 2.49347 5.00776C2.14306 5.47512 1.82505 5.96789 1.54829 6.47246C1.48583 6.58627 1.48812 6.72459 1.55417 6.83631C1.62035 6.94799 1.74049 7.01654 1.87031 7.01654Z" fill="black"/>
<path d="M0.71721 9.96765H6.02612C6.22902 9.96765 6.39352 9.80315 6.39352 9.60025C6.39352 9.39735 6.22902 9.23285 6.02612 9.23285H1.19487C1.26129 9.00249 1.33531 8.77329 1.41652 8.54669H3.62146C3.82436 8.54669 3.98886 8.38219 3.98886 8.17929C3.98886 7.97639 3.82436 7.81189 3.62146 7.81189H1.16104C1.00892 7.81189 0.872521 7.90568 0.818068 8.04759C0.634081 8.52672 0.480037 9.01998 0.360266 9.51348C0.333632 9.62296 0.358713 9.73873 0.428403 9.82725C0.498052 9.91594 0.604506 9.96765 0.71721 9.96765Z" fill="black"/>
<path d="M6.98268 16.8143C6.98268 16.6114 6.81818 16.4469 6.61528 16.4469H1.41369C1.33342 16.2216 1.25972 15.9924 1.19342 15.7607H11.206C11.4089 15.7607 11.5734 15.5962 11.5734 15.3933C11.5734 15.1904 11.4089 15.0259 11.206 15.0259H0.716137C0.603433 15.0259 0.496979 15.0776 0.427248 15.1662C0.357641 15.2548 0.332436 15.3705 0.359111 15.4799C0.480067 15.9786 0.633294 16.4717 0.814503 16.9455C0.868956 17.0878 1.00539 17.1816 1.15768 17.1816H6.6152C6.81818 17.1817 6.98268 17.0172 6.98268 16.8143Z" fill="black"/>
<path d="M11.3546 19.7654C11.3546 19.5625 11.1901 19.398 10.9872 19.398H2.9678C2.80551 19.1739 2.65146 18.9446 2.50661 18.7119H3.62152C3.82442 18.7119 3.98892 18.5474 3.98892 18.3445C3.98892 18.1416 3.82442 17.9771 3.62152 17.9771H1.86592C1.73614 17.9771 1.61588 18.0456 1.54975 18.1573C1.48361 18.269 1.48141 18.4073 1.54386 18.5211C1.81944 19.0237 2.13696 19.5163 2.48757 19.9854C2.55702 20.0782 2.66596 20.1328 2.78185 20.1328H10.9872C11.1901 20.1328 11.3546 19.9683 11.3546 19.7654Z" fill="black"/>
<path d="M12.5 0.000976562C9.28489 0.000976562 6.22982 1.2196 3.89755 3.43227C3.78844 3.53578 3.75343 3.69526 3.80911 3.83496C3.86487 3.97467 4.00008 4.06625 4.15045 4.06625H7.4471C7.65 4.06625 7.8145 3.90175 7.8145 3.69885C7.8145 3.49595 7.65 3.33145 7.4471 3.33145H5.12798C7.21336 1.65134 9.79665 0.735821 12.5001 0.735821C18.8645 0.735821 24.0641 5.81572 24.2589 12.1337H0.741258C0.747876 11.9214 0.759518 11.7094 0.777533 11.4988H11.4973C11.7002 11.4988 11.8647 11.3343 11.8647 11.1314C11.8647 10.9285 11.7002 10.764 11.4973 10.764H0.445016C0.258292 10.764 0.101225 10.9042 0.079902 11.0897C0.0269199 11.5543 0 12.0291 0 12.5009C0 12.9672 0.0265523 13.4395 0.078799 13.905C0.0996324 14.0908 0.256822 14.2314 0.443913 14.2314H8.43064C8.63354 14.2314 8.79804 14.0669 8.79804 13.864C8.79804 13.6611 8.63354 13.4966 8.43064 13.4966H0.777002C0.759355 13.2875 0.747876 13.0778 0.741258 12.8685H24.2588C24.2523 13.0793 24.2401 13.2887 24.2226 13.4966H19.695C19.4921 13.4966 19.3276 13.6611 19.3276 13.864C19.3276 14.0669 19.4921 14.2314 19.695 14.2314H24.1375C24.0978 14.4996 24.0488 14.7647 23.9912 15.0268H21.9356C21.7327 15.0268 21.5682 15.1913 21.5682 15.3942C21.5682 15.5971 21.7327 15.7616 21.9356 15.7616H23.805C23.5812 16.536 23.2797 17.2776 22.9097 17.9779H17.017C16.8141 17.9779 16.6496 18.1424 16.6496 18.3453C16.6496 18.5482 16.8141 18.7127 17.017 18.7127H22.487C20.4072 22.0444 16.7084 24.2661 12.4999 24.2661C9.79154 24.2661 7.20539 23.3484 5.11961 21.6638H7.1279C7.3308 21.6638 7.4953 21.4993 7.4953 21.2964C7.4953 21.0935 7.3308 20.929 7.1279 20.929H4.14383C3.99355 20.929 3.85846 21.0206 3.80257 21.1601C3.7469 21.2998 3.78162 21.4591 3.89065 21.5627C6.22263 23.7799 9.28011 25.0009 12.5 25.0009C19.3925 25.0009 25 19.3934 25 12.5009C25 5.60849 19.3925 0.000976562 12.5 0.000976562Z" fill="black"/>
<path d="M19.3606 11.4383C19.625 11.4383 19.8845 11.3951 20.1319 11.3101C21.6536 10.7869 22.3524 8.79282 21.6896 6.86496C21.148 5.28976 19.8359 4.18951 18.499 4.18951C18.2346 4.18951 17.9751 4.23261 17.7278 4.31766C16.206 4.84086 15.5072 6.83494 16.17 8.76275C16.7117 10.338 18.0237 11.4383 19.3606 11.4383ZM17.9668 5.01263C18.1371 4.95401 18.3162 4.92444 18.4991 4.92444C19.5273 4.92444 20.5536 5.82064 20.995 7.10393C21.526 8.64854 21.0316 10.2237 19.8931 10.6152C19.7228 10.6739 19.5437 10.7035 19.3607 10.7035C18.3326 10.7035 17.3063 9.8072 16.8649 8.5239C16.3338 6.97922 16.8281 5.40401 17.9668 5.01263ZM19.5311 7.6072C19.6803 8.04123 19.5316 8.48575 19.1991 8.60009C18.8665 8.71443 18.476 8.45524 18.3268 8.02121C18.1776 7.58718 18.3262 7.14266 18.6588 7.02832C18.9913 6.91402 19.3819 7.17317 19.5311 7.6072Z" fill="black"/>
</svg>
