<svg width="750" height="750" viewBox="0 0 750 750" fill="none" xmlns="http://www.w3.org/2000/svg">
<path d="M677.7 375C677.7 542.2 542.2 677.7 375 677.7C207.8 677.7 72.3 542.2 72.3 375C72.3 207.8 207.8 72.3 375 72.3C542.2 72.3 677.7 207.8 677.7 375Z" fill="white"/>
<path d="M654.4 257C639.1 220.9 617.3 188.5 589.4 160.6C561.6 132.8 529.1 110.9 493 95.6C455.6 79.8 415.9 71.8 375 71.8C334.1 71.8 294.4 79.8 257 95.6C220.9 110.9 188.5 132.7 160.6 160.6C132.8 188.4 110.9 220.9 95.6 257C79.8 294.4 71.8 334.1 71.8 375C71.8 415.9 79.8 455.6 95.6 493C110.9 529.1 132.7 561.5 160.6 589.4C188.4 617.2 220.9 639.1 257 654.4C294.4 670.2 334.1 678.2 375 678.2C415.9 678.2 455.6 670.2 493 654.4C529.1 639.1 561.5 617.3 589.4 589.4C617.2 561.6 639.1 529.1 654.4 493C670.2 455.6 678.2 415.9 678.2 375C678.2 334.1 670.2 294.4 654.4 257ZM375 667C214 667 83 536 83 375C83 214 214 83 375 83C536 83 667 214 667 375C667 536 536 667 375 667ZM634.9 265.2C620.7 231.6 600.4 201.4 574.5 175.5C548.6 149.6 518.4 129.3 484.8 115.1C450 100.4 413.1 92.9 375 92.9C336.9 92.9 300 100.4 265.2 115.1C231.6 129.3 201.4 149.6 175.5 175.5C149.6 201.4 129.3 231.6 115.1 265.2C100.4 300 92.9 336.9 92.9 375C92.9 413.1 100.4 450 115.1 484.8C129.3 518.4 149.6 548.6 175.5 574.5C201.4 600.4 231.6 620.7 265.2 634.9C300 649.6 337 657.1 375 657.1C413.1 657.1 450 649.6 484.8 634.9C518.4 620.7 548.6 600.4 574.5 574.5C600.4 548.6 620.7 518.4 634.9 484.8C649.6 450 657.1 413 657.1 375C657.1 337 649.6 300 634.9 265.2ZM166.8 433.2L174.9 456.1L154.8 441.9L134.8 456.4L142.9 433.5L124.2 420.3H147.6L154.9 399.8L162.2 420.3H184.9L166.8 433.2ZM375 551.2C277.9 551.2 198.8 472.2 198.8 375C198.8 277.8 277.8 198.8 375 198.8C472.1 198.8 551.2 277.8 551.2 375C551.2 472.2 472.1 551.2 375 551.2ZM620.5 456.1L600.4 441.9L580.4 456.4L588.5 433.5L569.8 420.3H593.2L600.5 399.8L607.8 420.3H630.5L612.5 433.3L620.5 456.1Z" fill="#146636"/>
<circle cx="376.5" cy="375.5" r="162.5" fill="black"/>
<g clip-path="url(#clip0)">
<path d="M440.607 515.794C423.031 515.794 410.415 510.133 405.301 500.129C404.516 500.47 403.706 500.867 402.809 501.306C397.773 503.769 390.878 507.145 374.941 507.145C358.974 507.145 352.075 503.773 347.039 501.306C346.142 500.867 345.327 500.47 344.547 500.129C339.433 510.133 326.816 515.794 309.241 515.794C302.691 515.794 296.06 514.915 291.929 513.5C285.66 511.353 281.007 505.411 273.961 496.417C268.192 489.052 260.288 478.962 248.267 466.859C237.901 456.424 233.68 445.093 235.357 432.204L235.478 432.222L235.409 432.196L235.357 432.187C235.357 432.183 235.357 432.179 235.357 432.174L235.366 432.123C235.512 431.001 235.711 429.859 235.948 428.712C238.695 415.582 247.047 403.052 254.411 391.992C254.812 391.388 255.213 390.789 255.61 390.19C255.093 389.711 254.64 389.163 254.261 388.547C252.536 385.761 252.389 381.889 253.803 376.357C253.941 375.818 254.084 375.266 254.222 374.706C251.885 371.653 250.854 368.475 251.221 365.431L252.182 357.536C252.708 353.224 256.037 349.352 261.617 346.519C262.423 343.751 263.1 341.616 263.682 340.025C264.501 337.779 265.622 334.704 268.593 334.704H269.033C269.033 334.704 269.494 334.817 269.559 334.829C269.986 333.596 270.387 332.449 270.749 331.414C271.167 330.216 271.542 329.138 271.853 328.241C269.468 326.206 268.058 323.222 268.058 319.997V317.03C268.058 313.563 269.736 310.329 272.47 308.303C272.733 289.262 277.346 272.872 286.194 259.561C293.693 248.282 304.235 239.184 317.533 232.517C340.701 220.901 365.74 220 372.859 220C373.928 220 374.639 220.022 374.92 220.03C375.2 220.022 375.911 220 376.981 220C384.104 220 409.143 220.901 432.311 232.522C445.608 239.188 456.151 248.29 463.649 259.566C472.497 272.876 477.111 289.262 477.374 308.303C480.103 310.325 481.781 313.559 481.781 317.03V319.997C481.781 323.226 480.371 326.206 477.986 328.241C478.297 329.142 478.672 330.22 479.09 331.423C479.461 332.488 479.875 333.67 480.315 334.942C480.578 334.877 480.767 334.829 480.858 334.812L481.237 334.713L481.725 334.709C484.696 334.709 485.817 337.783 486.636 340.03C487.218 341.621 487.895 343.755 488.701 346.523C494.281 349.356 497.61 353.228 498.136 357.54L499.097 365.435C499.468 368.479 498.433 371.657 496.096 374.71C496.238 375.27 496.376 375.818 496.519 376.361C497.959 381.997 497.778 385.925 495.958 388.715C495.523 389.379 495.005 389.965 494.406 390.461C494.746 390.97 495.087 391.483 495.428 391.996C502.435 402.513 510.36 414.409 513.464 426.858C513.62 427.103 513.775 427.349 513.93 427.604L514.284 428.177L514.948 432.071L514.71 432.153C514.9 433.731 514.999 435.322 514.999 436.883L514.831 436.926C514.991 447.779 510.537 457.847 501.585 466.859C489.564 478.962 481.66 489.052 475.891 496.417C468.845 505.411 464.188 511.353 457.919 513.5C453.788 514.915 447.152 515.794 440.607 515.794Z" fill="black"/>
<path d="M511.185 432.075C511.4 432.45 511.512 432.657 511.512 432.657C511.512 432.657 511.512 432.657 510.96 429.432C510.71 429.022 510.46 428.634 510.21 428.242C506.903 414.297 497.037 400.9 489.25 388.987C493.01 388.366 495.33 385.8 493.139 377.228C492.859 376.137 492.575 375.003 492.277 373.843C494.265 371.679 495.998 368.867 495.632 365.862L495.153 361.912L494.674 357.963C494.114 353.34 488.845 350.357 485.783 348.998C483.951 342.539 482.411 338.016 481.678 338.201C481.678 338.201 479.854 338.607 478.104 339.236C476.043 333.217 474.387 328.629 473.891 326.999C474.021 326.857 474.141 326.71 474.258 326.568C476.646 325.348 478.289 322.868 478.289 320.001V317.034C478.289 314.064 476.53 311.515 474.003 310.342C473.969 310.239 473.93 310.14 473.895 310.036C473.895 219.276 374.938 223.519 374.938 223.519H374.908C374.908 223.519 275.946 219.276 275.946 310.032C275.912 310.135 275.873 310.235 275.838 310.338C273.307 311.507 271.548 314.059 271.548 317.03V319.997C271.548 322.864 273.187 325.343 275.58 326.564C275.696 326.706 275.817 326.848 275.946 326.995C275.455 328.616 273.825 333.139 271.785 339.085C270.177 338.546 268.642 338.201 268.642 338.201C267.909 338.012 266.369 342.539 264.537 348.998C261.475 350.357 256.206 353.34 255.646 357.963L255.167 361.912L254.689 365.862C254.322 368.872 256.06 371.679 258.043 373.843C257.75 375.003 257.461 376.137 257.181 377.228C255.081 385.46 257.133 388.15 260.63 388.9C260.63 388.905 260.635 388.909 260.635 388.913C252.619 401.185 242.374 415.03 239.36 429.432C239.136 430.497 238.955 431.571 238.812 432.64C238.808 432.653 238.808 432.657 238.808 432.657C237.445 443.118 240.227 453.829 250.726 464.401C276.839 490.695 283.143 506.808 293.047 510.202C302.951 513.595 336.269 515.29 342.573 495.783C349.778 497.478 353.456 503.656 374.899 503.656H374.929C396.372 503.656 400.055 497.478 407.256 495.783C413.559 515.29 446.873 513.595 456.782 510.202C466.686 506.808 472.99 490.695 499.103 464.401C508.304 455.135 511.577 445.761 511.327 436.542L511.504 436.883C511.512 435.016 511.357 433.351 511.185 432.075Z" fill="black"/>
<path d="M374.937 503.656C396.38 503.656 400.062 497.477 407.263 495.783C413.567 515.29 446.881 513.595 456.789 510.202C466.694 506.808 472.998 490.695 499.11 464.401C525.223 438.107 503.612 410.964 489.206 388.913C492.807 377.888 475.701 332.932 473.899 326.994C478.401 321.906 476.598 317.664 473.899 310.032C473.895 219.275 374.937 223.518 374.937 223.518H374.907C374.907 223.518 275.945 219.275 275.945 310.032C273.246 317.664 271.444 321.906 275.945 326.994C274.143 332.932 257.038 377.883 260.638 388.913C246.232 410.964 224.621 438.107 250.734 464.401C276.846 490.695 283.15 506.808 293.055 510.202C302.959 513.595 336.277 515.29 342.581 495.783C349.786 497.477 353.464 503.656 374.907 503.656H374.937V503.656Z" fill="white"/>
<path d="M309.311 513.384C302.282 513.384 296.052 512.371 292.706 511.224C287.113 509.309 282.875 503.898 275.855 494.933C270.047 487.521 262.096 477.367 249.971 465.164C225.19 440.207 242.503 414.224 256.413 393.346C257.452 391.785 258.478 390.25 259.47 388.736C256.874 378.513 268.167 346.152 273.035 332.199C273.807 329.991 274.402 328.288 274.743 327.245C270.517 322.101 272.147 317.513 274.583 310.67L274.876 309.851C274.915 284.225 282.819 263.675 298.376 248.769C313.674 234.113 333.686 227.735 347.777 224.967C362.601 222.057 374.192 222.415 374.925 222.44C375.33 222.423 387.041 222.014 402.081 224.967C416.176 227.735 436.188 234.113 451.482 248.769C467.039 263.671 474.943 284.221 474.981 309.851L475.275 310.674C477.707 317.513 479.336 322.101 475.111 327.245C475.451 328.293 476.047 329.996 476.818 332.208C481.686 346.161 492.979 378.517 490.383 388.741C491.375 390.254 492.401 391.794 493.436 393.35C507.346 414.228 524.659 440.212 499.878 465.164C487.758 477.371 479.806 487.521 473.998 494.933C466.974 503.898 462.736 509.309 457.143 511.224C450.214 513.595 430.957 515.406 417.823 508.831C412.261 506.045 408.484 502.1 406.582 497.085C404.952 497.577 403.452 498.314 401.753 499.146C396.661 501.638 390.322 504.739 374.942 504.739H374.912C359.531 504.739 353.193 501.638 348.1 499.146C346.401 498.314 344.897 497.581 343.271 497.085C341.37 502.096 337.592 506.045 332.03 508.831C325.243 512.224 316.822 513.384 309.311 513.384ZM372.941 224.566C369.039 224.566 359.566 224.838 348.122 227.093C334.324 229.809 314.752 236.049 299.846 250.334C284.699 264.852 277.019 284.937 277.019 310.036V310.222L276.605 311.394C274.117 318.388 272.871 321.898 276.752 326.288L277.153 326.74L276.976 327.318C276.683 328.288 276.006 330.229 275.066 332.915C270.603 345.704 258.75 379.673 261.66 388.585L261.82 389.077L261.535 389.508C260.457 391.16 259.336 392.841 258.198 394.549C244.02 415.828 227.95 439.944 251.493 463.647C263.704 475.944 271.703 486.155 277.541 493.61C284.319 502.259 288.407 507.481 293.396 509.189C300.45 511.603 319.064 512.91 331.051 506.908C336.428 504.213 339.96 500.362 341.546 495.46L341.852 494.515L342.818 494.744C345.056 495.27 346.988 496.218 349.036 497.219C353.93 499.612 360.018 502.591 374.899 502.591H374.929C389.809 502.591 395.897 499.612 400.791 497.219C402.835 496.218 404.771 495.274 407.009 494.744L407.975 494.515L408.281 495.46C409.864 500.362 413.395 504.217 418.776 506.908C430.763 512.91 449.378 511.603 456.432 509.189C461.421 507.481 465.513 502.259 472.287 493.605C478.125 486.15 486.123 475.94 498.335 463.647C521.873 439.944 505.803 415.824 491.625 394.549C490.487 392.841 489.37 391.164 488.288 389.508L488.003 389.077L488.163 388.585C491.073 379.673 479.224 345.708 474.762 332.924C473.822 330.233 473.145 328.288 472.851 327.318L472.675 326.74L473.071 326.288C476.952 321.902 475.702 318.393 473.218 311.399L472.8 310.222V310.036C472.8 284.937 465.12 264.852 449.973 250.334C435.066 236.049 415.495 229.814 401.697 227.093C386.692 224.139 375.08 224.592 374.963 224.596H374.894H374.838C374.834 224.592 374.157 224.566 372.941 224.566Z" fill="black"/>
<path d="M478.293 319.997C478.293 324.067 474.99 327.37 470.919 327.37H278.925C274.854 327.37 271.552 324.067 271.552 319.997V317.03C271.552 312.96 274.854 309.657 278.925 309.657H470.919C474.994 309.657 478.293 312.96 478.293 317.03V319.997Z" fill="black"/>
<path d="M278.77 328.737C278.77 328.737 278.442 329.116 277.955 329.914C277.472 330.712 276.83 331.932 276.312 333.588C275.795 335.239 275.441 337.347 275.635 339.745C275.739 340.939 275.976 342.198 276.368 343.483C276.774 344.781 277.213 346.148 277.683 347.562C278.628 350.4 279.71 353.452 280.939 356.647C282.159 359.847 283.552 363.176 285.074 366.582C286.605 369.98 288.317 373.434 290.291 376.792C291.279 378.47 292.335 380.126 293.499 381.704C294.659 383.282 295.927 384.787 297.354 386.097C298.781 387.391 300.39 388.516 302.166 389.017C303.05 389.267 303.964 389.34 304.857 389.219C305.34 389.137 305.818 389.06 306.297 388.978C306.767 388.879 307.237 388.779 307.707 388.68C309.6 388.253 311.454 387.706 313.278 387.128C315.102 386.546 316.891 385.934 318.638 385.283C320.384 384.636 322.096 383.972 323.756 383.29C325.424 382.626 327.046 381.945 328.62 381.272C331.763 379.919 334.712 378.573 337.411 377.288C338.761 376.646 340.05 376.016 341.271 375.413C342.495 374.813 343.651 374.236 344.733 373.684C346.898 372.58 348.765 371.579 350.287 370.726C351.809 369.872 352.99 369.178 353.779 368.678C354.176 368.432 354.474 368.233 354.676 368.1C354.879 367.966 354.982 367.897 354.982 367.897C354.982 367.897 354.883 367.97 354.689 368.117C354.495 368.264 354.206 368.475 353.822 368.742C353.055 369.281 351.917 370.049 350.42 370.954C348.929 371.868 347.096 372.942 344.97 374.128C343.905 374.723 342.771 375.344 341.564 375.99C340.357 376.629 339.076 377.288 337.739 377.961C335.062 379.311 332.138 380.729 329.012 382.161C325.886 383.592 322.553 385.032 319.043 386.369C315.533 387.706 311.859 389.004 307.983 389.909C307.491 390.013 307 390.12 306.504 390.224C306.012 390.31 305.517 390.392 305.021 390.478C303.951 390.629 302.848 390.539 301.817 390.25C299.739 389.672 297.988 388.426 296.479 387.046C294.965 385.649 293.663 384.08 292.473 382.454C291.283 380.824 290.214 379.134 289.213 377.422C287.23 373.99 285.553 370.48 284.039 367.039C282.526 363.598 281.241 360.205 280.068 356.971C278.904 353.733 277.886 350.65 276.998 347.782C276.558 346.346 276.135 344.975 275.782 343.651C275.42 342.315 275.221 341.008 275.161 339.775C275.049 337.304 275.484 335.166 276.071 333.51C276.649 331.846 277.373 330.651 277.886 329.875C278.425 329.099 278.77 328.737 278.77 328.737Z" fill="black"/>
<path d="M320.953 451.371C314.963 451.371 305.809 442.057 305.413 441.652L306.34 440.746C306.435 440.845 315.951 450.526 321.31 450.06C324.005 449.827 332.086 448.275 341.438 446.477C355.008 443.872 370.388 440.919 374.92 440.919V442.212C370.509 442.212 355.193 445.153 341.684 447.749C332.293 449.551 324.186 451.108 321.423 451.349C321.267 451.366 321.112 451.371 320.953 451.371Z" fill="black"/>
<path d="M317.257 370.929C317.257 370.929 317.11 370.998 316.834 371.131C316.558 371.265 316.153 371.459 315.627 371.692C314.575 372.145 313.079 372.817 311.195 373.417C310.25 373.71 309.215 374.003 308.06 374.137C306.917 374.262 305.598 374.201 304.412 373.481C304.158 373.313 303.899 373.141 303.64 372.972L303.248 372.714L302.864 372.416C302.61 372.218 302.351 372.015 302.092 371.813C301.842 371.606 301.609 371.377 301.363 371.161C300.389 370.29 299.501 369.303 298.634 368.307C298.211 367.798 297.815 367.272 297.405 366.759C297.021 366.224 296.633 365.698 296.263 365.168C295.905 364.629 295.542 364.094 295.206 363.555C294.878 363.012 294.546 362.477 294.236 361.947C293.934 361.408 293.632 360.886 293.352 360.36C293.08 359.834 292.817 359.317 292.559 358.817C292.063 357.803 291.61 356.837 291.231 355.928C290.825 355.031 290.523 354.181 290.23 353.44C289.963 352.689 289.73 352.03 289.54 351.491C289.191 350.4 289.006 349.775 289.006 349.775C289.006 349.775 289.264 350.378 289.696 351.435C289.924 351.956 290.204 352.59 290.523 353.319C290.873 354.035 291.235 354.854 291.679 355.725C292.106 356.605 292.606 357.536 293.128 358.523C293.404 359.011 293.684 359.511 293.969 360.02C294.266 360.524 294.572 361.037 294.883 361.563C295.202 362.081 295.538 362.598 295.874 363.128C296.224 363.646 296.582 364.172 296.939 364.698C297.306 365.22 297.694 365.733 298.073 366.255C298.474 366.755 298.875 367.268 299.285 367.764C300.122 368.747 300.98 369.713 301.92 370.562C302.153 370.773 302.381 370.998 302.614 371.2C302.851 371.394 303.088 371.593 303.325 371.787L303.679 372.076L304.063 372.343C304.317 372.52 304.571 372.696 304.822 372.873C305.266 373.158 305.813 373.352 306.348 373.447C306.891 373.546 307.448 373.555 307.986 373.516C309.069 373.429 310.104 373.201 311.044 372.964C312.924 372.468 314.476 371.946 315.55 371.558C316.64 371.153 317.257 370.929 317.257 370.929Z" fill="black"/>
<path d="M360.096 343.591C360.096 343.591 359.997 343.708 359.807 343.923C359.618 344.139 359.346 344.462 358.98 344.859C358.6 345.238 358.147 345.713 357.608 346.239C357.056 346.748 356.461 347.351 355.754 347.946C355.405 348.248 355.043 348.563 354.668 348.891C354.284 349.205 353.883 349.529 353.473 349.865C352.658 350.538 351.766 351.21 350.847 351.909C349.916 352.59 348.967 353.31 347.967 353.996C346.98 354.694 345.958 355.38 344.936 356.07C342.875 357.415 340.801 358.739 338.813 359.907C337.825 360.507 336.855 361.054 335.937 361.572C335.023 362.102 334.139 362.568 333.328 363.008C332.522 363.456 331.763 363.827 331.099 364.172C330.435 364.517 329.849 364.806 329.366 365.043C328.4 365.517 327.844 365.776 327.844 365.776C327.844 365.776 328.365 365.448 329.284 364.896C329.745 364.62 330.306 364.288 330.939 363.892C331.578 363.499 332.298 363.059 333.082 362.581C333.863 362.098 334.712 361.576 335.609 361.02C336.502 360.459 337.442 359.869 338.416 359.261C339.382 358.644 340.382 358.006 341.4 357.355C342.413 356.704 343.435 356.031 344.457 355.354C346.505 354.009 348.519 352.616 350.399 351.301C351.322 350.624 352.24 349.994 353.077 349.361C353.499 349.046 353.909 348.74 354.306 348.446C354.698 348.145 355.073 347.851 355.44 347.571C356.173 347.015 356.811 346.467 357.397 346.006C357.966 345.527 358.454 345.096 358.859 344.747C359.648 344.009 360.096 343.591 360.096 343.591Z" fill="black"/>
<path d="M347.695 330.832C347.695 330.832 348.018 330.832 348.579 330.849C349.144 330.862 349.946 330.897 350.907 330.983C351.39 331.018 351.912 331.074 352.46 331.147C353.012 331.207 353.589 331.294 354.189 331.397C354.788 331.492 355.4 331.626 356.026 331.764C356.646 331.923 357.276 332.083 357.897 332.29C358.518 332.497 359.13 332.738 359.717 333.027C360.307 333.307 360.859 333.665 361.351 334.066C361.851 334.463 362.248 334.963 362.545 335.467C362.614 335.597 362.683 335.726 362.748 335.851C362.8 335.985 362.851 336.114 362.903 336.244C362.963 336.39 362.981 336.489 363.019 336.627C363.054 336.761 363.08 336.89 363.101 337.015C363.261 338.033 363.028 338.861 362.83 339.387C362.731 339.654 362.627 339.853 362.558 339.986C362.485 340.12 362.45 340.189 362.45 340.189C362.45 340.189 362.472 340.111 362.515 339.969C362.558 339.822 362.61 339.611 362.666 339.34C362.769 338.801 362.86 337.999 362.618 337.119C362.588 337.011 362.554 336.899 362.515 336.796C362.476 336.696 362.424 336.55 362.373 336.464C362.317 336.356 362.265 336.244 362.209 336.131C362.14 336.028 362.075 335.92 362.006 335.812C361.709 335.394 361.342 334.997 360.885 334.665C360.665 334.493 360.411 334.346 360.161 334.191C359.893 334.062 359.643 333.898 359.359 333.782C358.807 333.523 358.225 333.303 357.625 333.109C357.035 332.902 356.422 332.738 355.823 332.574C355.215 332.436 354.624 332.259 354.038 332.143C353.456 332.018 352.895 331.884 352.356 331.781C351.817 331.673 351.308 331.57 350.838 331.475C349.894 331.289 349.109 331.13 348.557 331.022C348.01 330.906 347.695 330.832 347.695 330.832Z" fill="black"/>
<path d="M287.303 343.751C287.303 343.751 287.273 343.656 287.221 343.475C287.17 343.294 287.088 343.031 287.006 342.694C286.833 342.017 286.6 341.039 286.437 339.844C286.355 339.245 286.29 338.594 286.268 337.895C286.247 337.201 286.256 336.459 286.355 335.692C286.402 335.304 286.475 334.933 286.575 334.515C286.631 334.329 286.674 334.148 286.738 333.954C286.812 333.76 286.881 333.553 286.967 333.368C287.299 332.609 287.765 331.88 288.377 331.277C288.998 330.686 289.748 330.216 290.559 329.966C290.955 329.823 291.374 329.754 291.779 329.711C291.982 329.69 292.189 329.69 292.387 329.681C292.577 329.681 292.766 329.681 292.952 329.677C294.444 329.668 295.841 329.685 297.035 329.711C299.424 329.759 301.019 329.867 301.019 329.867C301.019 329.867 299.433 330.048 297.044 330.207C295.849 330.289 294.461 330.371 292.969 330.436C292.784 330.444 292.594 330.453 292.404 330.462C292.223 330.479 292.046 330.483 291.87 330.509C291.516 330.565 291.162 330.63 290.822 330.755C290.132 330.979 289.507 331.384 288.981 331.893C288.45 332.402 288.036 333.031 287.73 333.704C287.648 333.872 287.597 334.04 287.523 334.204C287.459 334.377 287.402 334.571 287.342 334.748C287.252 335.075 287.161 335.446 287.105 335.8C286.868 337.227 286.885 338.611 286.928 339.792C286.989 340.974 287.092 341.966 287.174 342.656C287.256 343.354 287.303 343.751 287.303 343.751Z" fill="black"/>
<path d="M306.12 370.769C294.732 363.762 283.94 333.079 292.438 332.902C300.937 332.725 357.492 330.785 360.04 337.447C362.588 344.109 311.553 374.11 306.12 370.769Z" fill="black"/>
<path d="M297.13 394.829C297.13 394.829 296.686 395.127 295.892 395.743C295.099 396.36 293.96 397.291 292.602 398.572C291.253 399.861 289.679 401.508 288.196 403.63C287.458 404.69 286.755 405.872 286.165 407.187C285.574 408.493 285.1 409.942 284.914 411.49C284.724 413.038 284.832 414.681 285.311 416.281C285.548 417.083 285.884 417.867 286.29 418.635C286.704 419.428 287.13 420.222 287.575 421.024C288.459 422.628 289.399 424.258 290.42 425.883C291.434 427.513 292.52 429.143 293.715 430.73C294.909 432.312 296.211 433.856 297.66 435.274C299.109 436.684 300.704 437.982 302.489 438.97C304.262 439.957 306.232 440.613 308.259 440.712C310.281 440.832 312.325 440.384 314.209 439.565C316.102 438.75 317.848 437.573 319.461 436.249C320.263 435.581 321.022 434.865 321.807 434.136C322.587 433.416 323.376 432.696 324.169 431.997C327.334 429.182 330.616 426.59 333.944 424.301C337.269 421.998 340.671 420.049 344.013 418.45C347.354 416.846 350.636 415.604 353.727 414.664C356.819 413.724 359.716 413.107 362.304 412.702C364.891 412.288 367.163 412.072 369.039 411.964C369.509 411.939 369.949 411.913 370.367 411.887C370.785 411.878 371.177 411.87 371.54 411.857C371.902 411.848 372.242 411.839 372.549 411.835C372.859 411.835 373.139 411.839 373.389 411.839C374.394 411.848 374.929 411.852 374.929 411.852C374.929 411.852 374.394 411.874 373.389 411.913C373.139 411.921 372.859 411.934 372.553 411.947C372.247 411.969 371.91 411.99 371.548 412.016C370.824 412.064 369.992 412.12 369.06 412.219C367.198 412.387 364.942 412.68 362.39 413.18C359.837 413.681 356.987 414.383 353.947 415.362C350.912 416.358 347.695 417.652 344.435 419.303C342.801 420.118 341.163 421.041 339.52 422.033C337.877 423.024 336.23 424.085 334.6 425.241C331.336 427.535 328.136 430.148 325.006 432.933C324.221 433.632 323.449 434.339 322.673 435.063C321.901 435.783 321.117 436.529 320.28 437.228C318.607 438.616 316.77 439.867 314.726 440.751C312.691 441.63 310.436 442.122 308.194 441.984C305.952 441.863 303.787 441.13 301.89 440.065C299.98 439 298.307 437.624 296.819 436.141C295.327 434.654 294.008 433.054 292.801 431.424C290.39 428.156 288.433 424.766 286.717 421.494C286.29 420.679 285.871 419.864 285.47 419.066C285.056 418.247 284.72 417.393 284.483 416.526C284.004 414.797 283.931 413.03 284.173 411.395C284.405 409.757 284.94 408.256 285.578 406.911C286.229 405.57 287.001 404.389 287.79 403.332C289.377 401.228 291.028 399.624 292.434 398.378C293.844 397.132 295.038 396.261 295.858 395.683C296.673 395.105 297.13 394.829 297.13 394.829Z" fill="black"/>
<path d="M290.605 400.736C279.938 388.366 283.327 366.595 283.478 365.672L284.754 365.879C284.72 366.099 281.313 387.982 291.584 399.891L290.605 400.736Z" fill="black"/>
<path d="M285.828 373.852C285.828 373.852 285.992 391.259 292.305 396.989C293.801 395.993 294.103 394.083 295.129 394.829C294.547 392.837 294.629 388.516 295.129 387.771C293.387 386.442 286.328 376.62 285.828 373.852Z" fill="black"/>
<path d="M282.008 365.146C282.008 365.146 281.943 365.72 281.848 366.72C281.745 367.72 281.65 369.152 281.555 370.868C281.465 372.584 281.409 374.589 281.426 376.732C281.426 377.806 281.478 378.91 281.521 380.031C281.581 381.152 281.659 382.29 281.788 383.424C281.844 383.989 281.904 384.558 281.986 385.119C282.055 385.684 282.146 386.24 282.241 386.792C282.43 387.896 282.65 388.974 282.909 390.009C283.038 390.526 283.194 391.026 283.323 391.522C283.478 392.009 283.633 392.488 283.78 392.954C283.953 393.411 284.121 393.855 284.285 394.286C284.47 394.709 284.647 395.114 284.815 395.506C285.194 396.269 285.539 396.972 285.906 397.563C286.238 398.175 286.617 398.654 286.889 399.072C287.182 399.477 287.437 399.779 287.6 399.991C287.769 400.202 287.855 400.314 287.855 400.314C287.855 400.314 287.756 400.21 287.566 400.021C287.38 399.822 287.083 399.559 286.755 399.171C286.445 398.775 286.022 398.322 285.634 397.731C285.212 397.162 284.798 396.481 284.371 395.722C284.172 395.334 283.965 394.928 283.754 394.51C283.569 394.079 283.375 393.635 283.176 393.173C283.004 392.703 282.827 392.225 282.642 391.733C282.482 391.233 282.318 390.724 282.172 390.198C281.887 389.146 281.611 388.055 281.417 386.93C281.314 386.369 281.215 385.8 281.141 385.231C281.055 384.662 280.986 384.084 280.926 383.511C280.805 382.359 280.736 381.204 280.684 380.065C280.641 378.927 280.641 377.806 280.663 376.724C280.676 375.641 280.74 374.594 280.801 373.606C280.865 372.619 280.956 371.683 281.055 370.825C281.249 369.105 281.499 367.686 281.676 366.694C281.87 365.703 282.008 365.146 282.008 365.146Z" fill="black"/>
<path d="M268.641 338.201C268.641 338.201 274.868 339.59 275.368 341.19C275.872 342.789 275.756 370.433 279.766 375.396C279.766 379.712 278.938 389.176 271.548 388.844C264.157 388.512 253.196 392.828 257.185 377.22C261.169 361.615 266.981 337.775 268.641 338.201Z" fill="white"/>
<path d="M263.553 389.586C260.988 389.586 258.664 389.185 257.258 387.495C255.641 385.554 255.482 382.157 256.767 377.116C257.224 375.322 257.707 373.416 258.207 371.45C263.032 352.409 266.576 338.852 268.245 337.861C268.447 337.74 268.624 337.749 268.741 337.775C269.831 338.016 275.23 339.305 275.782 341.056C275.92 341.496 275.997 343.169 276.144 346.601C276.485 354.69 277.2 371.524 280.107 375.12L280.202 375.236V375.387C280.202 378.621 279.74 384.489 276.64 387.452C275.282 388.75 273.566 389.357 271.53 389.267C270.159 389.207 268.62 389.31 267.132 389.409C265.929 389.504 264.718 389.586 263.553 389.586ZM268.637 338.641C267.089 339.909 262.251 358.993 259.043 371.666C258.547 373.632 258.064 375.534 257.603 377.332C256.391 382.083 256.495 385.231 257.922 386.943C259.686 389.064 263.441 388.81 267.076 388.564C268.59 388.461 270.151 388.353 271.573 388.417C273.359 388.499 274.868 387.969 276.045 386.839C278.869 384.14 279.326 378.668 279.339 375.547C276.338 371.511 275.653 355.363 275.286 346.644C275.174 343.975 275.075 341.672 274.963 341.319C274.669 340.392 271.116 339.206 268.637 338.641Z" fill="black"/>
<path d="M272.047 341.276L273.544 341.94C273.544 341.94 274.699 373.235 277.903 376.603C277.778 379.095 276.907 385.817 274.165 386.568C275.536 384.325 277.528 379.591 276.157 376.728C274.785 373.865 270.676 340.732 270.676 340.732" fill="black"/>
<path d="M265.657 379.833C265.554 380.678 264.536 381.247 263.385 381.109C262.234 380.967 261.38 380.169 261.483 379.324L265.472 346.515C265.575 345.669 266.593 345.1 267.744 345.238C268.895 345.381 269.749 346.178 269.646 347.019L265.657 379.833Z" fill="white"/>
<path d="M263.726 381.561C263.596 381.561 263.467 381.553 263.333 381.54C261.945 381.372 260.923 380.354 261.057 379.276L265.045 346.467C265.11 345.919 265.45 345.445 266.007 345.135C266.516 344.85 267.154 344.738 267.8 344.816C268.447 344.893 269.038 345.156 269.465 345.557C269.926 345.988 270.146 346.532 270.077 347.079L266.089 379.884C265.968 380.863 264.946 381.561 263.726 381.561ZM267.399 345.652C267.042 345.652 266.705 345.734 266.429 345.885C266.123 346.057 265.938 346.299 265.903 346.566L261.915 379.375C261.841 379.97 262.54 380.57 263.441 380.682C264.338 380.785 265.162 380.376 265.235 379.781L269.223 346.972C269.258 346.704 269.133 346.424 268.878 346.183C268.59 345.911 268.163 345.725 267.701 345.669C267.593 345.656 267.494 345.652 267.399 345.652Z" fill="black"/>
<path d="M255.649 357.963L255.171 361.912L254.692 365.862C253.894 372.42 263.087 378.052 263.087 378.052L266.722 348.149C266.722 348.14 256.447 351.404 255.649 357.963Z" fill="black"/>
<path d="M266.86 346.993C266.86 346.993 266.873 347.506 266.86 348.403C266.847 349.3 266.817 350.581 266.735 352.111C266.697 352.874 266.653 353.707 266.584 354.578C266.52 355.453 266.464 356.376 266.369 357.329C266.278 358.282 266.201 359.265 266.089 360.261C265.985 361.261 265.864 362.27 265.748 363.283C265.619 364.297 265.498 365.306 265.356 366.302C265.226 367.298 265.062 368.272 264.924 369.216C264.786 370.161 264.627 371.075 264.476 371.937C264.334 372.804 264.178 373.619 264.032 374.369C263.747 375.874 263.467 377.124 263.264 378C263.062 378.875 262.924 379.371 262.924 379.371C262.924 379.371 262.911 378.858 262.924 377.961C262.937 377.064 262.963 375.783 263.049 374.253C263.088 373.485 263.131 372.657 263.2 371.786C263.264 370.911 263.325 369.988 263.42 369.035C263.51 368.082 263.583 367.099 263.7 366.103C263.803 365.103 263.924 364.094 264.04 363.081C264.17 362.067 264.295 361.058 264.433 360.062C264.562 359.066 264.726 358.092 264.864 357.147C264.998 356.203 265.166 355.289 265.312 354.427C265.455 353.56 265.614 352.745 265.757 351.995C266.041 350.49 266.321 349.24 266.524 348.364C266.722 347.489 266.86 346.993 266.86 346.993Z" fill="black"/>
<path d="M260.402 377.103C260.402 377.103 258.651 383.83 265.567 383.329C272.484 382.829 272.544 378.785 272.544 378.785C272.544 378.785 273.725 385.882 269.306 386.197C271.362 386.136 273.355 386.037 273.975 381.135C274.226 383.394 274.036 387.814 268.745 387.878C263.454 387.943 258.905 388.129 258.47 384.455C258.034 380.781 258.345 375.046 260.402 377.103Z" fill="black"/>
<path d="M326.765 450.323H321.656V434.787L326.765 431.273V450.323Z" fill="black"/>
<path d="M340.662 447.779H335.557V424.223L340.662 421.149V447.779Z" fill="black"/>
<path d="M353.568 445.312H348.463V416.949L353.568 415.086V445.312Z" fill="black"/>
<path d="M366.474 443.049H361.368V413.237L366.474 412.335V443.049Z" fill="black"/>
<path d="M247.603 433.619C247.603 433.619 258.284 414.267 263.838 415.246C267.205 415.841 263.061 417.937 261.673 419.114C260.285 420.291 250.384 433.265 250.001 433.891C249.647 434.46 246.836 435.956 247.603 433.619Z" fill="black"/>
<path d="M252.109 440C252.109 440 262.789 420.649 268.343 421.628C271.71 422.223 267.567 424.318 266.178 425.495C264.79 426.672 254.89 439.647 254.502 440.272C254.148 440.841 251.341 442.337 252.109 440Z" fill="black"/>
<path d="M256.611 446.382C256.611 446.382 267.292 427.03 272.845 428.009C276.213 428.604 272.069 430.7 270.681 431.877C269.292 433.054 259.392 446.029 259.004 446.654C258.655 447.219 255.844 448.719 256.611 446.382Z" fill="black"/>
<path d="M261.117 452.764C261.117 452.764 271.797 433.412 277.351 434.391C280.718 434.986 276.575 437.081 275.186 438.258C273.798 439.435 263.898 452.41 263.51 453.035C263.156 453.6 260.345 455.101 261.117 452.764Z" fill="black"/>
<path d="M265.618 459.141C265.618 459.141 276.299 439.789 281.852 440.768C285.22 441.363 281.076 443.459 279.688 444.636C278.299 445.813 268.399 458.787 268.016 459.413C267.662 459.982 264.851 461.482 265.618 459.141Z" fill="black"/>
<path d="M279.77 375.4C279.77 375.4 279.792 377.168 279.775 379.768C279.848 377.129 279.77 375.4 279.77 375.4Z" fill="black"/>
<path d="M246.664 421.843C252.123 415.487 260.009 408.485 269.659 407.782C269.914 407.743 270.164 407.696 270.414 407.64C270.414 407.64 282.849 405.639 286.799 406.118C287.911 404.427 288.696 402.733 288.696 402.733L275.756 404.565C277.304 402.849 278.464 400.396 278.943 396.985C279.589 392.341 279.749 384.606 279.775 379.763C279.559 387.382 278.059 402.621 269.659 405.949C258.349 410.434 250.277 411.719 239.368 429.428C238.816 432.653 238.816 432.653 238.816 432.653C238.816 432.653 238.929 432.446 239.144 432.071C238.972 433.347 238.816 435.011 238.816 436.878" fill="black"/>
<path d="M244.732 429.466C244.732 429.466 238.26 436.107 243.236 448.9C248.716 459.261 268.4 478.027 270.724 482.179C273.048 486.331 273.88 487.159 276.204 487.823C278.528 488.487 273.548 484.335 272.384 480.847C269.892 477.195 247.056 452.449 246.392 447.719C245.728 442.984 240.912 437.202 244.732 429.466Z" fill="black"/>
<path d="M247.262 450.728C247.262 450.728 245.891 441.367 245.145 438.375C246.641 440.742 248.509 452.824 249.129 454.066" fill="black"/>
<path d="M442.073 300.787C442.198 300.671 442.306 300.541 442.405 300.412C442.392 300.472 442.414 300.421 442.474 300.317C442.526 300.235 442.573 300.153 442.616 300.071C442.677 299.981 442.741 299.882 442.819 299.791C442.84 299.77 442.853 299.744 442.871 299.722C452.456 299.528 460.588 297.213 463.21 295.027C460.558 256.94 436.347 244.082 428.672 240.943C428.637 240.887 428.603 240.831 428.572 240.775C428.422 240.507 428.249 240.287 428.059 240.102C437.395 244.138 466.491 260.001 468.694 301.753C456.738 301.753 439.801 301.753 439.801 301.753L439.796 301.736C440.525 301.766 441.275 301.537 441.883 300.973C441.944 300.908 442.008 300.848 442.073 300.787Z" fill="black"/>
<path d="M331.163 306.815L339.593 307.634C339.972 306.953 340.455 306.336 341.033 305.819H331.426L331.163 306.815Z" fill="black"/>
<path d="M322.613 306.815L325.351 305.819H305.305C305.563 306.095 305.749 306.436 305.844 306.815H322.613Z" fill="black"/>
<path d="M329.404 305.819H325.351L325.683 306.815L329.404 305.819Z" fill="black"/>
<path d="M326.097 452.785C326.097 452.785 326.769 452.686 327.946 452.535C329.124 452.393 330.805 452.164 332.823 451.931C334.841 451.694 337.2 451.435 339.726 451.177C340.99 451.052 342.296 450.922 343.624 450.789C344.952 450.664 346.302 450.539 347.652 450.409C349.001 450.293 350.351 450.176 351.679 450.06C353.007 449.952 354.318 449.849 355.581 449.745C358.112 449.547 360.48 449.383 362.506 449.254C364.533 449.12 366.227 449.047 367.413 448.978C368.599 448.917 369.276 448.896 369.276 448.896C369.276 448.896 368.603 448.995 367.426 449.146C366.249 449.288 364.567 449.521 362.549 449.75C360.531 449.987 358.173 450.245 355.646 450.504C354.383 450.629 353.076 450.758 351.748 450.892C350.42 451.017 349.07 451.142 347.721 451.267C346.371 451.384 345.021 451.5 343.693 451.617C342.365 451.724 341.055 451.828 339.791 451.931C337.26 452.13 334.893 452.293 332.866 452.423C330.84 452.557 329.145 452.63 327.959 452.699C326.778 452.759 326.097 452.785 326.097 452.785Z" fill="black"/>
<path d="M304.374 441.268C304.374 441.268 302.438 446.007 292.473 450.724C282.508 455.441 270.345 459.373 269.051 468.89C267.757 478.406 278.891 496.339 279.938 497.659" fill="white"/>
<path d="M279.429 498.064C278.395 496.753 267.08 478.574 268.408 468.804C269.564 460.309 278.826 456.161 287.786 452.151C289.248 451.496 290.761 450.819 292.197 450.137C301.748 445.614 303.757 441.065 303.774 441.018L304.969 441.509C304.887 441.712 302.821 446.533 292.744 451.302C291.296 451.987 289.778 452.668 288.308 453.324C279.671 457.187 270.745 461.189 269.685 468.972C268.434 478.156 279.473 496.033 280.438 497.253L279.429 498.064Z" fill="black"/>
<path d="M276.364 408.407C276.364 408.407 269.521 408.938 268.728 410.818C269.611 412.926 278.684 428.72 287.747 439.47C283.923 432.364 272.526 413.249 276.558 411.68C280.59 410.102 278.921 408.084 276.364 408.407Z" fill="black"/>
<path d="M319.248 498.164C323.953 493.459 323.953 485.831 319.248 481.127C314.543 476.422 306.915 476.422 302.211 481.127C297.506 485.831 297.506 493.459 302.211 498.164C306.915 502.869 314.543 502.869 319.248 498.164Z" fill="black"/>
<path d="M315.678 494.594C318.411 491.861 318.411 487.43 315.678 484.697C312.945 481.964 308.514 481.964 305.781 484.697C303.048 487.43 303.048 491.861 305.781 494.594C308.514 497.327 312.945 497.327 315.678 494.594Z" fill="white"/>
<path d="M310.734 497.723C306.279 497.723 302.657 494.101 302.657 489.647C302.657 485.193 306.279 481.571 310.734 481.571C315.188 481.571 318.81 485.193 318.81 489.647C318.81 494.101 315.183 497.723 310.734 497.723ZM310.734 483.731C307.47 483.731 304.813 486.388 304.813 489.652C304.813 492.916 307.47 495.572 310.734 495.572C313.998 495.572 316.654 492.916 316.654 489.652C316.654 486.388 313.998 483.731 310.734 483.731Z" fill="black"/>
<path d="M314.163 493.078C316.059 491.182 316.059 488.108 314.163 486.212C312.266 484.316 309.192 484.316 307.296 486.212C305.4 488.108 305.4 491.182 307.296 493.078C309.192 494.975 312.267 494.975 314.163 493.078Z" fill="black"/>
<path d="M303.602 481.675L302.666 480.782C311.988 471.041 328.93 474.625 338.028 476.552C340.705 477.117 343.021 477.608 343.862 477.462C346.156 477.065 351.295 472.426 355.047 469.036C358.035 466.337 359.501 465.035 360.251 464.837C361.877 464.41 374.485 459.852 374.614 459.805L375.054 461.021C374.532 461.21 362.265 465.643 360.583 466.087C360.066 466.247 357.862 468.239 355.913 469.998C351.83 473.689 346.742 478.281 344.082 478.742C342.999 478.928 340.912 478.488 337.76 477.82C328.908 475.944 312.424 472.456 303.602 481.675Z" fill="black"/>
<path d="M362.079 469.075V494.261C363.131 494.407 364.24 494.541 365.399 494.658V469.075H362.079V469.075Z" fill="black"/>
<path d="M351.576 480.541C351.576 480.541 350.705 487.944 351.576 488.802C351.873 489.095 353.253 489.544 355.435 490.009V476.272L351.576 480.541Z" fill="black"/>
<path d="M357.095 474.694V492.152C358.095 492.351 359.203 492.549 360.415 492.734V470.662L357.095 474.694Z" fill="black"/>
<path d="M367.06 467.018V496.085C368.133 496.184 369.241 496.27 370.38 496.331V467.018H367.06Z" fill="black"/>
<path d="M374.92 464.591H372.04V497.603C372.984 497.641 373.942 497.663 374.92 497.663C374.92 486.448 374.92 464.591 374.92 464.591Z" fill="black"/>
<path d="M320.896 499.711C320.896 499.711 335.794 495.339 336.837 486.262C334.181 489.419 327.485 495.908 322.781 496.65" fill="black"/>
<path d="M471.554 328.737C471.554 328.737 471.899 329.099 472.425 329.879C472.942 330.66 473.666 331.85 474.24 333.514C474.822 335.17 475.262 337.309 475.15 339.779C475.089 341.013 474.891 342.319 474.529 343.656C474.171 344.98 473.753 346.351 473.313 347.787C472.425 350.65 471.407 353.737 470.243 356.975C469.074 360.209 467.785 363.603 466.272 367.043C464.762 370.484 463.081 373.994 461.097 377.426C460.101 379.138 459.028 380.828 457.838 382.458C456.647 384.084 455.341 385.658 453.832 387.05C452.323 388.43 450.572 389.676 448.494 390.254C447.463 390.543 446.359 390.634 445.29 390.483C444.794 390.396 444.303 390.315 443.807 390.228C443.315 390.125 442.819 390.017 442.328 389.914C438.447 389.008 434.778 387.71 431.268 386.374C427.758 385.033 424.425 383.597 421.299 382.165C418.173 380.734 415.249 379.315 412.572 377.965C411.235 377.288 409.959 376.629 408.747 375.995C407.544 375.348 406.406 374.727 405.341 374.132C403.215 372.942 401.382 371.868 399.89 370.959C398.394 370.053 397.256 369.281 396.488 368.747C396.1 368.479 395.816 368.268 395.622 368.121C395.428 367.979 395.328 367.901 395.328 367.901C395.328 367.901 395.432 367.97 395.635 368.104C395.837 368.238 396.135 368.44 396.531 368.682C397.32 369.182 398.506 369.876 400.024 370.73C401.546 371.584 403.413 372.584 405.578 373.688C406.66 374.24 407.816 374.818 409.04 375.417C410.26 376.025 411.55 376.65 412.899 377.293C415.598 378.578 418.548 379.923 421.691 381.277C423.265 381.95 424.886 382.631 426.555 383.295C428.215 383.976 429.927 384.64 431.673 385.287C433.419 385.938 435.213 386.555 437.033 387.132C438.857 387.71 440.715 388.258 442.604 388.685C443.074 388.784 443.544 388.883 444.014 388.982C444.492 389.064 444.975 389.142 445.454 389.224C446.346 389.344 447.261 389.271 448.144 389.021C449.921 388.525 451.529 387.395 452.957 386.102C454.384 384.791 455.651 383.286 456.811 381.708C457.971 380.13 459.032 378.474 460.019 376.797C461.994 373.438 463.706 369.984 465.237 366.586C466.759 363.184 468.147 359.851 469.372 356.652C470.596 353.457 471.679 350.404 472.627 347.567C473.102 346.148 473.537 344.781 473.942 343.488C474.335 342.203 474.572 340.944 474.675 339.749C474.869 337.352 474.516 335.243 473.998 333.592C473.481 331.936 472.839 330.712 472.356 329.918C471.881 329.116 471.554 328.737 471.554 328.737Z" fill="black"/>
<path d="M429.371 451.371C429.211 451.371 429.056 451.366 428.901 451.349C426.141 451.108 418.031 449.551 408.64 447.749C395.126 445.153 379.81 442.212 375.404 442.212V440.919C379.935 440.919 395.316 443.872 408.885 446.477C418.242 448.275 426.318 449.823 429.013 450.06C434.36 450.53 443.889 440.841 443.984 440.746L444.911 441.652C444.514 442.057 435.36 451.371 429.371 451.371Z" fill="black"/>
<path d="M433.07 370.928C433.07 370.928 433.687 371.148 434.76 371.536C435.834 371.92 437.382 372.446 439.266 372.942C440.206 373.179 441.241 373.408 442.323 373.494C442.862 373.533 443.419 373.524 443.962 373.425C444.501 373.33 445.044 373.136 445.488 372.851C445.738 372.675 445.993 372.502 446.247 372.321L446.631 372.054L446.984 371.765C447.222 371.571 447.459 371.377 447.696 371.178C447.933 370.976 448.157 370.756 448.39 370.54C449.326 369.691 450.184 368.725 451.025 367.742C451.439 367.246 451.835 366.737 452.236 366.233C452.616 365.711 453.004 365.198 453.37 364.676C453.728 364.15 454.082 363.624 454.435 363.107C454.772 362.576 455.108 362.063 455.427 361.541C455.738 361.02 456.044 360.502 456.341 359.998C456.63 359.485 456.91 358.989 457.182 358.501C457.704 357.514 458.208 356.583 458.631 355.703C459.075 354.832 459.437 354.013 459.786 353.297C460.106 352.568 460.386 351.934 460.614 351.413C461.045 350.356 461.304 349.753 461.304 349.753C461.304 349.753 461.119 350.378 460.77 351.469C460.58 352.008 460.347 352.663 460.08 353.418C459.786 354.159 459.485 355.009 459.079 355.906C458.7 356.816 458.243 357.777 457.751 358.795C457.492 359.295 457.229 359.812 456.958 360.338C456.678 360.86 456.371 361.386 456.074 361.925C455.763 362.46 455.431 362.99 455.104 363.533C454.772 364.072 454.405 364.603 454.047 365.146C453.677 365.681 453.288 366.202 452.905 366.737C452.495 367.255 452.098 367.776 451.676 368.285C450.809 369.285 449.921 370.269 448.946 371.14C448.701 371.359 448.472 371.584 448.218 371.791C447.959 371.993 447.7 372.196 447.446 372.394L447.062 372.692L446.67 372.951C446.411 373.123 446.152 373.291 445.898 373.459C444.716 374.184 443.393 374.24 442.25 374.115C441.094 373.985 440.06 373.692 439.115 373.395C437.231 372.8 435.735 372.127 434.683 371.67C434.157 371.437 433.756 371.243 433.475 371.109C433.217 371.002 433.07 370.928 433.07 370.928Z" fill="black"/>
<path d="M390.228 343.591C390.228 343.591 390.676 344.009 391.465 344.743C391.87 345.092 392.358 345.523 392.927 346.002C393.513 346.463 394.151 347.011 394.884 347.567C395.247 347.847 395.626 348.14 396.018 348.442C396.415 348.74 396.825 349.041 397.247 349.356C398.084 349.994 399.002 350.62 399.925 351.297C401.805 352.612 403.819 354.004 405.867 355.35C406.889 356.027 407.91 356.699 408.924 357.35C409.941 357.997 410.942 358.64 411.908 359.256C412.882 359.869 413.822 360.455 414.715 361.016C415.611 361.567 416.457 362.093 417.241 362.576C418.026 363.055 418.746 363.499 419.384 363.887C420.018 364.284 420.579 364.616 421.04 364.892C421.963 365.444 422.48 365.772 422.48 365.772C422.48 365.772 421.924 365.513 420.958 365.038C420.475 364.801 419.889 364.512 419.225 364.168C418.561 363.823 417.802 363.452 416.996 363.003C416.185 362.563 415.301 362.098 414.387 361.567C413.468 361.046 412.498 360.498 411.511 359.903C409.523 358.735 407.449 357.411 405.388 356.065C404.37 355.376 403.349 354.69 402.357 353.991C401.356 353.306 400.408 352.586 399.476 351.905C398.558 351.206 397.67 350.533 396.851 349.861C396.441 349.524 396.04 349.201 395.656 348.886C395.281 348.559 394.919 348.244 394.57 347.942C393.862 347.347 393.263 346.743 392.715 346.234C392.181 345.708 391.724 345.234 391.344 344.855C390.982 344.458 390.71 344.135 390.516 343.919C390.331 343.708 390.228 343.591 390.228 343.591Z" fill="black"/>
<path d="M402.633 330.832C402.633 330.832 402.318 330.906 401.766 331.018C401.214 331.125 400.429 331.281 399.485 331.47C399.015 331.565 398.506 331.669 397.967 331.777C397.428 331.88 396.868 332.014 396.286 332.139C395.699 332.255 395.113 332.432 394.5 332.57C393.901 332.734 393.289 332.898 392.698 333.105C392.103 333.294 391.517 333.514 390.965 333.777C390.68 333.894 390.434 334.058 390.163 334.187C389.913 334.342 389.663 334.489 389.438 334.661C388.981 334.993 388.615 335.394 388.317 335.808C388.248 335.916 388.179 336.024 388.115 336.127C388.059 336.239 388.002 336.351 387.951 336.459C387.899 336.545 387.847 336.692 387.808 336.791C387.77 336.895 387.735 337.007 387.705 337.115C387.463 337.994 387.554 338.796 387.658 339.335C387.714 339.607 387.765 339.822 387.808 339.965C387.852 340.111 387.873 340.185 387.873 340.185C387.873 340.185 387.834 340.116 387.765 339.982C387.696 339.848 387.593 339.65 387.494 339.383C387.295 338.857 387.058 338.029 387.222 337.011C387.244 336.886 387.269 336.757 387.304 336.623C387.343 336.485 387.364 336.386 387.42 336.239C387.472 336.11 387.524 335.981 387.576 335.847C387.64 335.722 387.709 335.593 387.778 335.463C388.076 334.959 388.472 334.454 388.973 334.062C389.464 333.661 390.016 333.303 390.607 333.023C391.193 332.734 391.81 332.492 392.426 332.285C393.047 332.078 393.681 331.919 394.298 331.759C394.923 331.621 395.535 331.488 396.135 331.393C396.73 331.289 397.312 331.203 397.864 331.143C398.411 331.069 398.933 331.013 399.416 330.979C400.382 330.893 401.184 330.858 401.744 330.845C402.309 330.832 402.633 330.832 402.633 330.832Z" fill="black"/>
<path d="M463.02 343.751C463.02 343.751 463.068 343.354 463.15 342.66C463.227 341.97 463.335 340.978 463.395 339.797C463.443 338.615 463.456 337.231 463.219 335.804C463.163 335.45 463.072 335.079 462.981 334.752C462.921 334.571 462.865 334.381 462.8 334.208C462.727 334.045 462.68 333.876 462.593 333.708C462.287 333.04 461.873 332.406 461.343 331.897C460.817 331.389 460.187 330.983 459.502 330.759C459.161 330.634 458.808 330.569 458.454 330.513C458.277 330.487 458.1 330.483 457.919 330.466C457.73 330.457 457.54 330.449 457.354 330.44C455.863 330.375 454.47 330.293 453.28 330.211C450.895 330.052 449.304 329.871 449.304 329.871C449.304 329.871 450.9 329.763 453.288 329.715C454.483 329.69 455.88 329.677 457.372 329.681C457.557 329.681 457.747 329.681 457.937 329.685C458.135 329.694 458.342 329.698 458.545 329.715C458.95 329.763 459.368 329.828 459.765 329.97C460.571 330.224 461.321 330.69 461.947 331.281C462.563 331.88 463.025 332.613 463.357 333.372C463.447 333.557 463.512 333.764 463.585 333.958C463.65 334.152 463.693 334.334 463.749 334.519C463.848 334.933 463.921 335.304 463.969 335.696C464.072 336.464 464.081 337.201 464.055 337.899C464.034 338.594 463.965 339.249 463.887 339.848C463.723 341.043 463.495 342.022 463.318 342.699C463.236 343.039 463.154 343.302 463.102 343.479C463.05 343.656 463.02 343.751 463.02 343.751Z" fill="black"/>
<path d="M444.203 370.769C455.59 363.762 466.383 333.079 457.884 332.902C449.386 332.725 392.831 330.785 390.283 337.447C387.735 344.109 438.77 374.11 444.203 370.769Z" fill="black"/>
<path d="M453.198 394.829C453.198 394.829 453.655 395.105 454.479 395.683C455.298 396.261 456.492 397.132 457.902 398.378C459.308 399.624 460.955 401.224 462.546 403.332C463.335 404.384 464.111 405.566 464.758 406.911C465.401 408.252 465.931 409.753 466.164 411.395C466.401 413.03 466.328 414.797 465.853 416.526C465.616 417.389 465.276 418.243 464.866 419.066C464.465 419.864 464.051 420.679 463.62 421.494C461.904 424.762 459.95 428.156 457.536 431.424C456.329 433.054 455.009 434.654 453.517 436.141C452.025 437.624 450.357 439 448.446 440.065C446.549 441.134 444.385 441.863 442.142 441.984C439.9 442.126 437.641 441.635 435.61 440.751C433.566 439.867 431.734 438.612 430.056 437.228C429.22 436.529 428.435 435.779 427.663 435.063C426.887 434.343 426.115 433.636 425.331 432.933C422.196 430.143 419.001 427.53 415.737 425.241C414.111 424.089 412.46 423.029 410.817 422.033C409.174 421.041 407.54 420.118 405.901 419.303C402.641 417.652 399.421 416.358 396.389 415.362C393.349 414.383 390.499 413.676 387.947 413.18C385.394 412.68 383.139 412.391 381.276 412.219C380.345 412.124 379.513 412.064 378.788 412.016C378.426 411.99 378.09 411.969 377.784 411.947C377.477 411.934 377.197 411.926 376.947 411.913C375.942 411.874 375.408 411.852 375.408 411.852C375.408 411.852 375.942 411.848 376.947 411.839C377.197 411.839 377.477 411.835 377.788 411.835C378.098 411.844 378.435 411.848 378.797 411.857C379.159 411.865 379.551 411.874 379.97 411.887C380.388 411.913 380.832 411.934 381.298 411.965C383.173 412.072 385.446 412.288 388.033 412.702C390.62 413.107 393.518 413.724 396.609 414.664C399.696 415.604 402.982 416.846 406.324 418.45C409.665 420.049 413.068 421.998 416.392 424.301C419.721 426.595 423.002 429.182 426.167 431.997C426.956 432.7 427.749 433.416 428.53 434.136C429.315 434.861 430.074 435.581 430.876 436.249C432.484 437.573 434.23 438.75 436.127 439.565C438.012 440.388 440.056 440.833 442.078 440.712C444.1 440.608 446.075 439.957 447.847 438.97C449.628 437.987 451.223 436.684 452.676 435.275C454.125 433.86 455.427 432.317 456.622 430.73C457.816 429.143 458.907 427.513 459.916 425.883C460.934 424.258 461.874 422.628 462.762 421.024C463.206 420.217 463.629 419.428 464.047 418.635C464.452 417.867 464.784 417.083 465.026 416.281C465.504 414.681 465.612 413.038 465.422 411.49C465.237 409.942 464.763 408.493 464.172 407.187C463.581 405.876 462.878 404.69 462.141 403.63C460.658 401.508 459.084 399.861 457.734 398.572C456.376 397.291 455.238 396.356 454.444 395.743C453.642 395.127 453.198 394.829 453.198 394.829Z" fill="black"/>
<path d="M459.722 400.736L458.743 399.891C469.023 387.973 465.612 366.099 465.573 365.879L466.85 365.672C467.001 366.595 470.39 388.366 459.722 400.736Z" fill="black"/>
<path d="M464.495 373.852C464.495 373.852 464.332 391.259 458.019 396.989C456.523 395.993 456.221 394.083 455.195 394.829C455.777 392.837 455.695 388.516 455.195 387.771C456.941 386.442 464 376.62 464.495 373.852Z" fill="black"/>
<path d="M468.315 365.146C468.315 365.146 468.457 365.707 468.643 366.694C468.82 367.686 469.07 369.105 469.264 370.825C469.363 371.683 469.453 372.619 469.518 373.606C469.583 374.594 469.647 375.641 469.656 376.724C469.678 377.806 469.673 378.927 469.634 380.065C469.583 381.204 469.514 382.359 469.393 383.511C469.333 384.088 469.264 384.662 469.177 385.231C469.104 385.804 469.005 386.369 468.901 386.93C468.707 388.055 468.432 389.146 468.147 390.198C468 390.72 467.836 391.233 467.677 391.733C467.496 392.225 467.319 392.708 467.142 393.173C466.944 393.631 466.75 394.079 466.564 394.51C466.353 394.928 466.146 395.334 465.948 395.722C465.521 396.481 465.107 397.166 464.684 397.731C464.296 398.322 463.874 398.775 463.563 399.171C463.236 399.555 462.938 399.822 462.753 400.021C462.563 400.21 462.464 400.314 462.464 400.314C462.464 400.314 462.554 400.202 462.718 399.991C462.882 399.775 463.137 399.473 463.43 399.072C463.706 398.654 464.081 398.175 464.413 397.563C464.779 396.972 465.124 396.265 465.504 395.506C465.672 395.114 465.853 394.709 466.034 394.286C466.198 393.855 466.366 393.411 466.539 392.954C466.689 392.488 466.84 392.009 466.996 391.522C467.125 391.026 467.28 390.526 467.41 390.009C467.664 388.974 467.888 387.896 468.078 386.792C468.173 386.24 468.263 385.684 468.332 385.119C468.414 384.558 468.475 383.989 468.531 383.424C468.66 382.29 468.738 381.152 468.798 380.031C468.841 378.91 468.893 377.802 468.893 376.732C468.91 374.589 468.854 372.584 468.764 370.868C468.669 369.152 468.574 367.72 468.47 366.72C468.38 365.715 468.315 365.146 468.315 365.146Z" fill="black"/>
<path d="M481.682 338.201C481.682 338.201 475.455 339.59 474.955 341.189C474.451 342.789 474.567 370.432 470.557 375.395C470.557 379.712 471.385 389.176 478.776 388.844C486.166 388.512 497.127 392.828 493.138 377.219C489.154 361.615 483.342 337.774 481.682 338.201Z" fill="white"/>
<path d="M486.77 389.586C485.606 389.586 484.394 389.504 483.191 389.422C481.703 389.323 480.164 389.215 478.793 389.28C476.762 389.37 475.041 388.758 473.683 387.464C470.583 384.502 470.122 378.634 470.122 375.4V375.249L470.216 375.132C473.123 371.536 473.834 354.703 474.179 346.614C474.326 343.177 474.399 341.508 474.541 341.064C475.093 339.318 480.492 338.029 481.583 337.787C481.699 337.757 481.88 337.753 482.078 337.874C483.747 338.865 487.291 352.418 492.116 371.463C492.612 373.425 493.095 375.331 493.557 377.129C494.842 382.169 494.682 385.563 493.065 387.508C491.659 389.189 489.335 389.586 486.77 389.586ZM479.672 388.4C480.837 388.4 482.061 388.482 483.256 388.564C486.886 388.81 490.642 389.064 492.41 386.943C493.837 385.227 493.94 382.083 492.729 377.331C492.272 375.533 491.789 373.632 491.289 371.666C488.076 358.993 483.243 339.909 481.695 338.641C479.215 339.202 475.662 340.387 475.373 341.319C475.261 341.668 475.166 343.975 475.05 346.644C474.679 355.363 473.998 371.506 470.993 375.546C471.006 378.672 471.467 384.144 474.287 386.839C475.468 387.969 476.977 388.499 478.763 388.417C479.056 388.404 479.362 388.4 479.672 388.4Z" fill="black"/>
<path d="M478.28 341.276L476.784 341.94C476.784 341.94 475.628 373.235 472.425 376.603C472.55 379.095 473.421 385.817 476.163 386.568C474.792 384.325 472.8 379.591 474.171 376.728C475.542 373.865 479.651 340.732 479.651 340.732" fill="black"/>
<path d="M484.667 379.833C484.77 380.678 485.788 381.247 486.939 381.109C488.09 380.967 488.944 380.169 488.841 379.324L484.852 346.515C484.749 345.67 483.731 345.1 482.58 345.238C481.428 345.381 480.575 346.178 480.678 347.019L484.667 379.833Z" fill="white"/>
<path d="M486.603 381.561C485.382 381.561 484.36 380.863 484.24 379.884L480.251 347.075C480.182 346.527 480.402 345.989 480.863 345.553C481.29 345.152 481.881 344.889 482.528 344.811C483.916 344.639 485.15 345.385 485.283 346.463L489.272 379.272C489.401 380.35 488.379 381.367 486.995 381.536C486.861 381.553 486.732 381.561 486.603 381.561ZM482.92 345.652C482.825 345.652 482.726 345.656 482.631 345.669C482.17 345.725 481.743 345.911 481.454 346.183C481.2 346.424 481.075 346.704 481.109 346.972L485.098 379.781C485.171 380.376 485.99 380.79 486.891 380.682C487.788 380.574 488.491 379.975 488.418 379.375L484.429 346.566C484.36 346.036 483.701 345.652 482.92 345.652Z" fill="black"/>
<path d="M494.678 357.963L495.157 361.912L495.636 365.862C496.433 372.42 487.241 378.052 487.241 378.052L483.606 348.149C483.606 348.14 493.881 351.404 494.678 357.963Z" fill="black"/>
<path d="M483.468 346.993C483.468 346.993 483.601 347.489 483.808 348.364C484.011 349.24 484.287 350.486 484.576 351.995C484.723 352.745 484.878 353.564 485.02 354.427C485.167 355.289 485.331 356.203 485.469 357.147C485.607 358.092 485.77 359.066 485.9 360.062C486.042 361.054 486.167 362.067 486.292 363.081C486.409 364.094 486.534 365.103 486.633 366.103C486.745 367.099 486.818 368.087 486.913 369.035C487.008 369.988 487.068 370.911 487.133 371.786C487.202 372.662 487.245 373.489 487.284 374.253C487.366 375.783 487.396 377.064 487.409 377.961C487.422 378.858 487.409 379.371 487.409 379.371C487.409 379.371 487.271 378.875 487.068 378C486.866 377.124 486.585 375.878 486.301 374.369C486.154 373.619 485.999 372.8 485.857 371.937C485.71 371.075 485.546 370.161 485.408 369.216C485.27 368.272 485.106 367.298 484.977 366.302C484.835 365.31 484.714 364.297 484.585 363.283C484.468 362.27 484.347 361.257 484.244 360.261C484.132 359.265 484.059 358.277 483.964 357.329C483.869 356.376 483.808 355.453 483.748 354.578C483.679 353.702 483.636 352.874 483.597 352.111C483.515 350.581 483.485 349.3 483.472 348.403C483.455 347.51 483.468 346.993 483.468 346.993Z" fill="black"/>
<path d="M489.922 377.103C489.922 377.103 491.673 383.83 484.757 383.329C477.84 382.829 477.78 378.785 477.78 378.785C477.78 378.785 476.599 385.882 481.018 386.197C478.961 386.136 476.969 386.037 476.348 381.135C476.098 383.394 476.288 387.814 481.579 387.878C486.874 387.939 491.418 388.128 491.854 384.455C492.289 380.777 491.979 375.046 489.922 377.103Z" fill="black"/>
<path d="M423.562 450.323H428.667V434.787L423.562 431.273V450.323Z" fill="black"/>
<path d="M409.661 447.779H414.767V424.223L409.661 421.149V447.779Z" fill="black"/>
<path d="M396.756 445.312H401.861V416.949L396.756 415.086V445.312Z" fill="black"/>
<path d="M383.854 443.049H388.959V413.237L383.854 412.335V443.049Z" fill="black"/>
<path d="M502.72 433.619C502.72 433.619 492.039 414.267 486.485 415.246C483.118 415.841 487.262 417.937 488.65 419.114C490.038 420.291 499.939 433.265 500.322 433.891C500.68 434.46 503.492 435.956 502.72 433.619Z" fill="black"/>
<path d="M498.219 440C498.219 440 487.538 420.649 481.984 421.628C478.617 422.223 482.761 424.318 484.149 425.495C485.537 426.672 495.437 439.647 495.826 440.272C496.175 440.841 498.986 442.337 498.219 440Z" fill="black"/>
<path d="M493.713 446.382C493.713 446.382 483.032 427.03 477.479 428.009C474.111 428.604 478.255 430.7 479.643 431.877C481.032 433.054 490.932 446.029 491.32 446.654C491.673 447.219 494.485 448.719 493.713 446.382Z" fill="black"/>
<path d="M489.211 452.764C489.211 452.764 478.53 433.412 472.977 434.391C469.609 434.986 473.753 437.081 475.141 438.258C476.53 439.435 486.43 452.41 486.818 453.035C487.167 453.6 489.978 455.101 489.211 452.764Z" fill="black"/>
<path d="M484.705 459.141C484.705 459.141 474.024 439.789 468.471 440.768C465.103 441.363 469.247 443.459 470.635 444.636C472.024 445.813 481.924 458.787 482.307 459.413C482.665 459.982 485.477 461.482 484.705 459.141Z" fill="black"/>
<path d="M470.558 375.4C470.558 375.4 470.536 377.168 470.553 379.768C470.48 377.129 470.558 375.4 470.558 375.4Z" fill="black"/>
<path d="M503.664 421.843C498.201 415.483 490.315 408.48 480.669 407.782C480.415 407.743 480.165 407.696 479.914 407.64C479.914 407.64 467.479 405.639 463.529 406.118C462.417 404.427 461.632 402.733 461.632 402.733L474.572 404.565C473.024 402.849 471.864 400.396 471.386 396.985C470.739 392.341 470.584 384.606 470.553 379.763C470.769 387.382 472.269 402.621 480.669 405.949C491.979 410.434 500.051 411.719 510.96 429.428C511.512 432.653 511.512 432.653 511.512 432.653C511.512 432.653 511.4 432.446 511.184 432.071C511.357 433.347 511.512 435.011 511.512 436.878" fill="black"/>
<path d="M505.596 429.466C505.596 429.466 512.068 436.107 507.092 448.9C501.612 459.261 481.928 478.027 479.604 482.179C477.28 486.331 476.448 487.159 474.123 487.823C471.799 488.487 476.78 484.335 477.944 480.847C480.436 477.195 503.272 452.449 503.936 447.719C504.6 442.984 509.416 437.202 505.596 429.466Z" fill="black"/>
<path d="M503.065 450.728C503.065 450.728 504.436 441.367 505.182 438.375C503.686 440.742 501.819 452.824 501.198 454.066" fill="black"/>
<path d="M424.226 452.785C424.226 452.785 423.549 452.763 422.363 452.703C421.178 452.634 419.487 452.561 417.457 452.427C415.426 452.302 413.063 452.134 410.532 451.936C409.264 451.832 407.958 451.729 406.629 451.621C405.301 451.504 403.952 451.388 402.602 451.272C401.253 451.147 399.903 451.017 398.575 450.896C397.247 450.763 395.94 450.633 394.677 450.508C392.15 450.25 389.792 449.991 387.774 449.754C385.756 449.525 384.074 449.292 382.897 449.15C381.72 448.999 381.047 448.9 381.047 448.9C381.047 448.9 381.724 448.922 382.91 448.982C384.096 449.051 385.786 449.124 387.817 449.258C389.848 449.383 392.211 449.551 394.742 449.75C396.009 449.853 397.316 449.956 398.644 450.064C399.972 450.181 401.322 450.297 402.671 450.414C404.021 450.539 405.37 450.668 406.698 450.793C408.027 450.927 409.333 451.056 410.596 451.181C413.123 451.44 415.482 451.698 417.5 451.936C419.518 452.164 421.199 452.397 422.376 452.539C423.554 452.686 424.226 452.785 424.226 452.785Z" fill="black"/>
<path d="M445.955 441.268C445.955 441.268 447.891 446.007 457.855 450.724C467.82 455.441 479.984 459.374 481.277 468.89C482.571 478.406 471.438 496.339 470.39 497.659" fill="white"/>
<path d="M470.898 498.064L469.885 497.262C470.851 496.042 481.885 478.165 480.639 468.98C479.578 461.197 470.653 457.2 462.016 453.333C460.546 452.673 459.028 451.996 457.579 451.31C447.502 446.541 445.441 441.721 445.359 441.518L446.554 441.026C446.571 441.074 448.58 445.623 458.131 450.146C459.567 450.827 461.08 451.504 462.542 452.16C471.498 456.17 480.764 460.318 481.919 468.812C483.248 478.57 471.933 496.753 470.898 498.064Z" fill="black"/>
<path d="M473.964 408.407C473.964 408.407 480.807 408.938 481.6 410.818C480.717 412.926 471.644 428.72 462.581 439.47C466.401 432.364 477.802 413.249 473.77 411.68C469.734 410.102 471.407 408.084 473.964 408.407Z" fill="black"/>
<path d="M441.531 501.539C448.099 500.473 452.559 494.285 451.493 487.717C450.427 481.149 444.239 476.689 437.671 477.755C431.103 478.821 426.643 485.009 427.709 491.577C428.775 498.145 434.963 502.605 441.531 501.539Z" fill="black"/>
<path d="M440.722 496.555C444.537 495.936 447.128 492.341 446.509 488.526C445.889 484.711 442.295 482.12 438.48 482.739C434.665 483.358 432.074 486.953 432.693 490.768C433.312 494.583 436.907 497.174 440.722 496.555Z" fill="white"/>
<path d="M439.594 497.723C435.14 497.723 431.518 494.101 431.518 489.647C431.518 485.193 435.14 481.571 439.594 481.571C444.048 481.571 447.67 485.193 447.67 489.647C447.67 494.101 444.048 497.723 439.594 497.723ZM439.594 483.731C436.33 483.731 433.674 486.387 433.674 489.651C433.674 492.916 436.33 495.572 439.594 495.572C442.858 495.572 445.514 492.916 445.514 489.651C445.514 486.387 442.858 483.731 439.594 483.731Z" fill="black"/>
<path d="M444.086 491.506C445.112 489.028 443.936 486.188 441.458 485.162C438.981 484.136 436.141 485.312 435.114 487.79C434.088 490.267 435.265 493.107 437.742 494.133C440.219 495.16 443.06 493.983 444.086 491.506Z" fill="black"/>
<path d="M446.726 481.675C437.904 472.451 421.42 475.944 412.568 477.815C409.416 478.484 407.333 478.924 406.246 478.738C403.586 478.277 398.502 473.685 394.415 469.998C392.47 468.239 390.262 466.247 389.745 466.087C388.067 465.643 375.796 461.21 375.274 461.021L375.714 459.805C375.839 459.852 388.451 464.41 390.077 464.837C390.827 465.035 392.297 466.341 395.281 469.036C399.033 472.426 404.172 477.069 406.466 477.462C407.307 477.608 409.622 477.117 412.3 476.552C421.403 474.625 438.344 471.041 447.662 480.782L446.726 481.675Z" fill="black"/>
<path d="M388.248 469.075V494.261C387.196 494.407 386.088 494.541 384.928 494.658V469.075H388.248V469.075Z" fill="black"/>
<path d="M398.752 480.541C398.752 480.541 399.623 487.944 398.752 488.802C398.455 489.095 397.075 489.544 394.893 490.009V476.272L398.752 480.541Z" fill="black"/>
<path d="M393.228 474.694V492.152C392.228 492.351 391.12 492.549 389.908 492.734V470.662L393.228 474.694Z" fill="black"/>
<path d="M383.268 467.018V496.085C382.195 496.184 381.087 496.27 379.948 496.331V467.018H383.268Z" fill="black"/>
<path d="M374.907 464.591H377.787V497.603C376.843 497.641 375.881 497.663 374.907 497.663C374.907 486.448 374.907 464.591 374.907 464.591Z" fill="black"/>
<path d="M429.431 499.711C429.431 499.711 414.533 495.339 413.49 486.262C416.146 489.419 422.842 495.908 427.546 496.65" fill="black"/>
<path d="M338.484 422.77L337.739 421.714C338.549 421.14 357.784 407.678 374.92 407.678V408.972C358.198 408.972 338.679 422.632 338.484 422.77Z" fill="black"/>
<path d="M411.355 422.77C411.161 422.632 391.642 408.972 374.92 408.972V407.678C392.06 407.678 411.295 421.14 412.106 421.714L411.355 422.77Z" fill="black"/>
</g>
<g clip-path="url(#clip1)">
<path d="M177.964 344.759L141.233 333.463L137.797 344.458L122.217 339.662L139.827 283.25L155.407 288.047L146.621 316.211L152.637 318.066L158.31 299.874L167.436 302.683L161.763 320.874L167.779 322.729L177.965 290.092L193.545 294.888L177.964 344.759Z" fill="white"/>
<path d="M191.616 298.417L145.65 268.724L155.394 253.518L181.046 255.639L168.451 233.142L178.194 217.936L224.159 247.628L214.416 262.835L195.318 250.502L208.155 272.605L207.62 273.44L182.261 270.877L201.359 283.21L191.616 298.417Z" fill="white"/>
<path d="M224.804 247.656L189.227 205.915L216.406 182.245C220.017 179.637 223.532 178.085 226.951 177.589C230.365 177.106 233.614 177.733 236.715 179.465C240.188 181.807 242.512 183.826 243.669 185.5C244.826 187.174 245.751 188.884 246.44 190.642C247.129 192.4 247.179 195.062 246.608 198.649C246.038 202.236 244.237 205.796 241.212 209.347L228.136 220.727L239.888 234.523L224.804 247.656ZM213.198 203.188L219.748 210.874L230.266 201.712C230.826 201.222 231.253 200.495 231.559 199.508C231.865 198.521 231.312 197.174 229.928 195.466C228.467 193.954 227.177 193.232 226.065 193.318C224.941 193.399 224.151 193.651 223.694 194.046L213.198 203.188Z" fill="white"/>
<path d="M239.639 165.606L255.148 156.499L282.351 204.263L266.842 213.371L239.639 165.606Z" fill="white"/>
<path d="M282.896 202.099L265.17 149.916L298.961 137.904C303.262 136.808 307.071 136.698 310.377 137.57C313.683 138.442 316.483 140.206 318.772 142.847C321.301 147.136 322.563 150.686 322.546 153.489C322.541 156.299 321.732 158.933 320.149 161.392C318.565 163.852 315.925 166.278 312.216 168.667L317.795 172.273L333.32 166.753L338.596 182.29L318.099 189.575L295.782 178.194L301.629 195.434L282.896 202.099ZM288.354 156.256L291.628 165.866L304.714 161.215C305.417 160.966 306.08 160.437 306.715 159.633C307.349 158.83 307.339 157.361 306.673 155.251C305.876 153.297 304.944 152.149 303.875 151.807C302.807 151.464 301.989 151.413 301.412 151.606L288.354 156.256Z" fill="white"/>
<path d="M335.751 183.997L332.169 128.805L379.102 125.197L380.171 141.628L351.057 143.866L351.467 150.204L370.264 148.757L370.886 158.383L352.089 159.83L352.499 166.167L386.241 163.567L387.305 180.009L335.751 183.997Z" fill="white"/>
<path d="M417.811 184.483L432.123 148.233L421.545 144.076L427.607 128.705L472.93 146.502C478.483 148.733 482.339 151.385 484.485 154.422C486.636 157.476 487.133 161.347 485.975 166.064C484.834 169.586 483.047 171.993 480.635 173.295C478.217 174.609 474.863 175.149 470.583 174.922L470.528 175.07C472.286 176.041 473.805 177.218 475.079 178.613C476.352 180.009 477.308 181.443 477.956 182.922C478.605 184.4 478.959 185.929 479.023 187.495C479.087 189.062 478.859 190.491 478.355 191.776C476.744 195.845 474.497 198.529 471.615 199.828C468.727 201.109 465.537 201.451 462.062 200.819C458.57 200.193 454.538 198.951 449.949 197.1L417.811 184.483ZM443.263 171.394L439.492 180.942L450.819 185.393C452.743 186.224 454.616 186.466 456.436 186.118C458.263 185.759 459.436 184.904 459.973 183.547C460.711 182.097 460.575 180.685 459.591 179.31C458.597 177.93 456.933 176.786 454.584 175.856L443.263 171.394ZM450.815 152.274L447.726 160.098L460.069 164.939C460.747 165.2 461.61 165.127 462.657 164.691C463.699 164.268 464.484 163.448 465.007 162.244C465.467 160.808 465.404 159.634 464.819 158.75C464.234 157.867 463.667 157.31 463.123 157.098L450.815 152.274Z" fill="white"/>
<path d="M518.014 171.896L498.162 198.007C495.78 200.888 494.765 203.383 495.124 205.508C495.489 207.621 496.95 209.742 499.531 211.853C501.684 213.444 503.938 214.184 506.285 214.054C508.632 213.925 510.871 212.382 512.99 209.421L532.842 183.31L546.97 194.178L527.276 220.074C524.432 223.695 521.602 226.162 518.807 227.487C516.013 228.813 513.19 229.53 510.338 229.669C507.487 229.808 504.454 229.268 501.212 228.078C497.976 226.877 494.728 225.09 491.463 222.702C488.842 220.586 486.423 218.131 484.183 215.325C481.943 212.52 480.357 209.6 479.429 206.556C478.501 203.511 478.344 200.409 478.987 197.246C479.629 194.084 481.357 190.649 484.182 186.947L503.904 161.021L518.014 171.896Z" fill="white"/>
<path d="M548.102 257.596L558.403 271.348L545.331 281.382L530.74 261.919C527.163 257.152 524.79 252.197 523.597 247.042C522.403 241.887 522.657 236.905 524.376 232.089C526.095 227.273 529.414 222.976 534.309 219.217C537.751 216.573 541.321 214.874 545.032 214.123C548.73 213.368 552.358 213.492 555.915 214.467C559.472 215.442 562.828 217.12 566 219.494C569.171 221.868 572.045 224.783 574.628 228.228L583.661 240.269L589.219 247.691L576.147 257.725L565.846 243.974C563.537 240.889 561.732 238.679 560.448 237.336C559.164 235.994 557.873 234.909 556.575 234.082C555.278 233.255 553.778 232.797 552.059 232.715C550.341 232.632 548.084 233.543 545.3 235.453C542.787 237.548 541.321 239.483 540.897 241.269C540.484 243.061 540.597 244.766 541.225 246.38C541.853 247.994 542.643 249.568 543.565 251.103C544.493 252.625 546.002 254.798 548.102 257.596Z" fill="white"/>
<path d="M602.035 276.349L585.464 283.247L606.699 288.048L613.342 304.69L580.284 296.221L573.379 309.006L579.492 324.313L564.33 330.612L556.269 310.419L566.285 291.225L551.124 297.524L544.469 280.876L595.381 259.701L602.035 276.349Z" fill="white"/>
<path d="M607.138 364.836L605.118 351.524C604.333 345.011 602.406 344.338 599.349 349.539C593.486 358.887 587.179 364.041 580.456 364.999C573.721 365.952 569.104 362.609 566.611 354.96L562.194 325.913L578.34 323.236L580.082 334.736C580.972 341.907 583.083 342.493 586.427 336.469C593.099 326.371 599.897 321.419 606.804 321.62C613.712 321.821 617.701 325.405 618.748 332.361L623.279 362.171L607.138 364.836Z" fill="white"/>
</g>
<defs>
<clipPath id="clip0">
<rect width="280" height="295.794" fill="white" transform="translate(235 220)"/>
</clipPath>
<clipPath id="clip1">
<rect width="324.019" height="472.041" fill="white" transform="translate(112 320.264) rotate(-61.6898)"/>
</clipPath>
</defs>
</svg>
